G75*
%MOIN*%
%OFA0B0*%
%FSLAX25Y25*%
%IPPOS*%
%LPD*%
%AMOC8*
5,1,8,0,0,1.08239X$1,22.5*
%
%ADD10C,0.00600*%
%ADD11C,0.00000*%
%ADD12C,0.05800*%
%ADD13C,0.06496*%
%ADD14C,0.06496*%
%ADD15C,0.07000*%
%ADD16C,0.05150*%
%ADD17C,0.06000*%
%ADD18C,0.05937*%
%ADD19R,0.05543X0.05543*%
%ADD20C,0.05543*%
%ADD21OC8,0.06200*%
%ADD22C,0.06200*%
%ADD23C,0.07800*%
%ADD24OC8,0.06000*%
%ADD25OC8,0.05200*%
%ADD26OC8,0.06300*%
%ADD27C,0.06300*%
%ADD28C,0.08850*%
%ADD29C,0.06600*%
%ADD30C,0.05150*%
%ADD31C,0.05000*%
%ADD32C,0.00800*%
%ADD33C,0.02978*%
%ADD34C,0.04000*%
D10*
X0004867Y0001444D02*
X0004867Y0196444D01*
X0789867Y0196444D01*
X0789867Y0001444D01*
X0004867Y0001444D01*
D11*
X0019946Y0064044D02*
X0019948Y0064184D01*
X0019954Y0064324D01*
X0019964Y0064463D01*
X0019978Y0064602D01*
X0019996Y0064741D01*
X0020017Y0064879D01*
X0020043Y0065017D01*
X0020073Y0065154D01*
X0020106Y0065289D01*
X0020144Y0065424D01*
X0020185Y0065558D01*
X0020230Y0065691D01*
X0020278Y0065822D01*
X0020331Y0065951D01*
X0020387Y0066080D01*
X0020446Y0066206D01*
X0020510Y0066331D01*
X0020576Y0066454D01*
X0020647Y0066575D01*
X0020720Y0066694D01*
X0020797Y0066811D01*
X0020878Y0066925D01*
X0020961Y0067037D01*
X0021048Y0067147D01*
X0021138Y0067255D01*
X0021230Y0067359D01*
X0021326Y0067461D01*
X0021425Y0067561D01*
X0021526Y0067657D01*
X0021630Y0067751D01*
X0021737Y0067841D01*
X0021846Y0067928D01*
X0021958Y0068013D01*
X0022072Y0068094D01*
X0022188Y0068172D01*
X0022306Y0068246D01*
X0022427Y0068317D01*
X0022549Y0068385D01*
X0022674Y0068449D01*
X0022800Y0068510D01*
X0022927Y0068567D01*
X0023057Y0068620D01*
X0023188Y0068670D01*
X0023320Y0068715D01*
X0023453Y0068758D01*
X0023588Y0068796D01*
X0023723Y0068830D01*
X0023860Y0068861D01*
X0023997Y0068888D01*
X0024135Y0068910D01*
X0024274Y0068929D01*
X0024413Y0068944D01*
X0024552Y0068955D01*
X0024692Y0068962D01*
X0024832Y0068965D01*
X0024972Y0068964D01*
X0025112Y0068959D01*
X0025251Y0068950D01*
X0025391Y0068937D01*
X0025530Y0068920D01*
X0025668Y0068899D01*
X0025806Y0068875D01*
X0025943Y0068846D01*
X0026079Y0068814D01*
X0026214Y0068777D01*
X0026348Y0068737D01*
X0026481Y0068693D01*
X0026612Y0068645D01*
X0026742Y0068594D01*
X0026871Y0068539D01*
X0026998Y0068480D01*
X0027123Y0068417D01*
X0027246Y0068352D01*
X0027368Y0068282D01*
X0027487Y0068209D01*
X0027605Y0068133D01*
X0027720Y0068054D01*
X0027833Y0067971D01*
X0027943Y0067885D01*
X0028051Y0067796D01*
X0028156Y0067704D01*
X0028259Y0067609D01*
X0028359Y0067511D01*
X0028456Y0067411D01*
X0028550Y0067307D01*
X0028642Y0067201D01*
X0028730Y0067093D01*
X0028815Y0066982D01*
X0028897Y0066868D01*
X0028976Y0066752D01*
X0029051Y0066635D01*
X0029123Y0066515D01*
X0029191Y0066393D01*
X0029256Y0066269D01*
X0029318Y0066143D01*
X0029376Y0066016D01*
X0029430Y0065887D01*
X0029481Y0065756D01*
X0029527Y0065624D01*
X0029570Y0065491D01*
X0029610Y0065357D01*
X0029645Y0065222D01*
X0029677Y0065085D01*
X0029704Y0064948D01*
X0029728Y0064810D01*
X0029748Y0064672D01*
X0029764Y0064533D01*
X0029776Y0064393D01*
X0029784Y0064254D01*
X0029788Y0064114D01*
X0029788Y0063974D01*
X0029784Y0063834D01*
X0029776Y0063695D01*
X0029764Y0063555D01*
X0029748Y0063416D01*
X0029728Y0063278D01*
X0029704Y0063140D01*
X0029677Y0063003D01*
X0029645Y0062866D01*
X0029610Y0062731D01*
X0029570Y0062597D01*
X0029527Y0062464D01*
X0029481Y0062332D01*
X0029430Y0062201D01*
X0029376Y0062072D01*
X0029318Y0061945D01*
X0029256Y0061819D01*
X0029191Y0061695D01*
X0029123Y0061573D01*
X0029051Y0061453D01*
X0028976Y0061336D01*
X0028897Y0061220D01*
X0028815Y0061106D01*
X0028730Y0060995D01*
X0028642Y0060887D01*
X0028550Y0060781D01*
X0028456Y0060677D01*
X0028359Y0060577D01*
X0028259Y0060479D01*
X0028156Y0060384D01*
X0028051Y0060292D01*
X0027943Y0060203D01*
X0027833Y0060117D01*
X0027720Y0060034D01*
X0027605Y0059955D01*
X0027487Y0059879D01*
X0027368Y0059806D01*
X0027246Y0059736D01*
X0027123Y0059671D01*
X0026998Y0059608D01*
X0026871Y0059549D01*
X0026742Y0059494D01*
X0026612Y0059443D01*
X0026481Y0059395D01*
X0026348Y0059351D01*
X0026214Y0059311D01*
X0026079Y0059274D01*
X0025943Y0059242D01*
X0025806Y0059213D01*
X0025668Y0059189D01*
X0025530Y0059168D01*
X0025391Y0059151D01*
X0025251Y0059138D01*
X0025112Y0059129D01*
X0024972Y0059124D01*
X0024832Y0059123D01*
X0024692Y0059126D01*
X0024552Y0059133D01*
X0024413Y0059144D01*
X0024274Y0059159D01*
X0024135Y0059178D01*
X0023997Y0059200D01*
X0023860Y0059227D01*
X0023723Y0059258D01*
X0023588Y0059292D01*
X0023453Y0059330D01*
X0023320Y0059373D01*
X0023188Y0059418D01*
X0023057Y0059468D01*
X0022927Y0059521D01*
X0022800Y0059578D01*
X0022674Y0059639D01*
X0022549Y0059703D01*
X0022427Y0059771D01*
X0022306Y0059842D01*
X0022188Y0059916D01*
X0022072Y0059994D01*
X0021958Y0060075D01*
X0021846Y0060160D01*
X0021737Y0060247D01*
X0021630Y0060337D01*
X0021526Y0060431D01*
X0021425Y0060527D01*
X0021326Y0060627D01*
X0021230Y0060729D01*
X0021138Y0060833D01*
X0021048Y0060941D01*
X0020961Y0061051D01*
X0020878Y0061163D01*
X0020797Y0061277D01*
X0020720Y0061394D01*
X0020647Y0061513D01*
X0020576Y0061634D01*
X0020510Y0061757D01*
X0020446Y0061882D01*
X0020387Y0062008D01*
X0020331Y0062137D01*
X0020278Y0062266D01*
X0020230Y0062397D01*
X0020185Y0062530D01*
X0020144Y0062664D01*
X0020106Y0062799D01*
X0020073Y0062934D01*
X0020043Y0063071D01*
X0020017Y0063209D01*
X0019996Y0063347D01*
X0019978Y0063486D01*
X0019964Y0063625D01*
X0019954Y0063764D01*
X0019948Y0063904D01*
X0019946Y0064044D01*
X0019946Y0134044D02*
X0019948Y0134184D01*
X0019954Y0134324D01*
X0019964Y0134463D01*
X0019978Y0134602D01*
X0019996Y0134741D01*
X0020017Y0134879D01*
X0020043Y0135017D01*
X0020073Y0135154D01*
X0020106Y0135289D01*
X0020144Y0135424D01*
X0020185Y0135558D01*
X0020230Y0135691D01*
X0020278Y0135822D01*
X0020331Y0135951D01*
X0020387Y0136080D01*
X0020446Y0136206D01*
X0020510Y0136331D01*
X0020576Y0136454D01*
X0020647Y0136575D01*
X0020720Y0136694D01*
X0020797Y0136811D01*
X0020878Y0136925D01*
X0020961Y0137037D01*
X0021048Y0137147D01*
X0021138Y0137255D01*
X0021230Y0137359D01*
X0021326Y0137461D01*
X0021425Y0137561D01*
X0021526Y0137657D01*
X0021630Y0137751D01*
X0021737Y0137841D01*
X0021846Y0137928D01*
X0021958Y0138013D01*
X0022072Y0138094D01*
X0022188Y0138172D01*
X0022306Y0138246D01*
X0022427Y0138317D01*
X0022549Y0138385D01*
X0022674Y0138449D01*
X0022800Y0138510D01*
X0022927Y0138567D01*
X0023057Y0138620D01*
X0023188Y0138670D01*
X0023320Y0138715D01*
X0023453Y0138758D01*
X0023588Y0138796D01*
X0023723Y0138830D01*
X0023860Y0138861D01*
X0023997Y0138888D01*
X0024135Y0138910D01*
X0024274Y0138929D01*
X0024413Y0138944D01*
X0024552Y0138955D01*
X0024692Y0138962D01*
X0024832Y0138965D01*
X0024972Y0138964D01*
X0025112Y0138959D01*
X0025251Y0138950D01*
X0025391Y0138937D01*
X0025530Y0138920D01*
X0025668Y0138899D01*
X0025806Y0138875D01*
X0025943Y0138846D01*
X0026079Y0138814D01*
X0026214Y0138777D01*
X0026348Y0138737D01*
X0026481Y0138693D01*
X0026612Y0138645D01*
X0026742Y0138594D01*
X0026871Y0138539D01*
X0026998Y0138480D01*
X0027123Y0138417D01*
X0027246Y0138352D01*
X0027368Y0138282D01*
X0027487Y0138209D01*
X0027605Y0138133D01*
X0027720Y0138054D01*
X0027833Y0137971D01*
X0027943Y0137885D01*
X0028051Y0137796D01*
X0028156Y0137704D01*
X0028259Y0137609D01*
X0028359Y0137511D01*
X0028456Y0137411D01*
X0028550Y0137307D01*
X0028642Y0137201D01*
X0028730Y0137093D01*
X0028815Y0136982D01*
X0028897Y0136868D01*
X0028976Y0136752D01*
X0029051Y0136635D01*
X0029123Y0136515D01*
X0029191Y0136393D01*
X0029256Y0136269D01*
X0029318Y0136143D01*
X0029376Y0136016D01*
X0029430Y0135887D01*
X0029481Y0135756D01*
X0029527Y0135624D01*
X0029570Y0135491D01*
X0029610Y0135357D01*
X0029645Y0135222D01*
X0029677Y0135085D01*
X0029704Y0134948D01*
X0029728Y0134810D01*
X0029748Y0134672D01*
X0029764Y0134533D01*
X0029776Y0134393D01*
X0029784Y0134254D01*
X0029788Y0134114D01*
X0029788Y0133974D01*
X0029784Y0133834D01*
X0029776Y0133695D01*
X0029764Y0133555D01*
X0029748Y0133416D01*
X0029728Y0133278D01*
X0029704Y0133140D01*
X0029677Y0133003D01*
X0029645Y0132866D01*
X0029610Y0132731D01*
X0029570Y0132597D01*
X0029527Y0132464D01*
X0029481Y0132332D01*
X0029430Y0132201D01*
X0029376Y0132072D01*
X0029318Y0131945D01*
X0029256Y0131819D01*
X0029191Y0131695D01*
X0029123Y0131573D01*
X0029051Y0131453D01*
X0028976Y0131336D01*
X0028897Y0131220D01*
X0028815Y0131106D01*
X0028730Y0130995D01*
X0028642Y0130887D01*
X0028550Y0130781D01*
X0028456Y0130677D01*
X0028359Y0130577D01*
X0028259Y0130479D01*
X0028156Y0130384D01*
X0028051Y0130292D01*
X0027943Y0130203D01*
X0027833Y0130117D01*
X0027720Y0130034D01*
X0027605Y0129955D01*
X0027487Y0129879D01*
X0027368Y0129806D01*
X0027246Y0129736D01*
X0027123Y0129671D01*
X0026998Y0129608D01*
X0026871Y0129549D01*
X0026742Y0129494D01*
X0026612Y0129443D01*
X0026481Y0129395D01*
X0026348Y0129351D01*
X0026214Y0129311D01*
X0026079Y0129274D01*
X0025943Y0129242D01*
X0025806Y0129213D01*
X0025668Y0129189D01*
X0025530Y0129168D01*
X0025391Y0129151D01*
X0025251Y0129138D01*
X0025112Y0129129D01*
X0024972Y0129124D01*
X0024832Y0129123D01*
X0024692Y0129126D01*
X0024552Y0129133D01*
X0024413Y0129144D01*
X0024274Y0129159D01*
X0024135Y0129178D01*
X0023997Y0129200D01*
X0023860Y0129227D01*
X0023723Y0129258D01*
X0023588Y0129292D01*
X0023453Y0129330D01*
X0023320Y0129373D01*
X0023188Y0129418D01*
X0023057Y0129468D01*
X0022927Y0129521D01*
X0022800Y0129578D01*
X0022674Y0129639D01*
X0022549Y0129703D01*
X0022427Y0129771D01*
X0022306Y0129842D01*
X0022188Y0129916D01*
X0022072Y0129994D01*
X0021958Y0130075D01*
X0021846Y0130160D01*
X0021737Y0130247D01*
X0021630Y0130337D01*
X0021526Y0130431D01*
X0021425Y0130527D01*
X0021326Y0130627D01*
X0021230Y0130729D01*
X0021138Y0130833D01*
X0021048Y0130941D01*
X0020961Y0131051D01*
X0020878Y0131163D01*
X0020797Y0131277D01*
X0020720Y0131394D01*
X0020647Y0131513D01*
X0020576Y0131634D01*
X0020510Y0131757D01*
X0020446Y0131882D01*
X0020387Y0132008D01*
X0020331Y0132137D01*
X0020278Y0132266D01*
X0020230Y0132397D01*
X0020185Y0132530D01*
X0020144Y0132664D01*
X0020106Y0132799D01*
X0020073Y0132934D01*
X0020043Y0133071D01*
X0020017Y0133209D01*
X0019996Y0133347D01*
X0019978Y0133486D01*
X0019964Y0133625D01*
X0019954Y0133764D01*
X0019948Y0133904D01*
X0019946Y0134044D01*
X0684946Y0149044D02*
X0684948Y0149184D01*
X0684954Y0149324D01*
X0684964Y0149463D01*
X0684978Y0149602D01*
X0684996Y0149741D01*
X0685017Y0149879D01*
X0685043Y0150017D01*
X0685073Y0150154D01*
X0685106Y0150289D01*
X0685144Y0150424D01*
X0685185Y0150558D01*
X0685230Y0150691D01*
X0685278Y0150822D01*
X0685331Y0150951D01*
X0685387Y0151080D01*
X0685446Y0151206D01*
X0685510Y0151331D01*
X0685576Y0151454D01*
X0685647Y0151575D01*
X0685720Y0151694D01*
X0685797Y0151811D01*
X0685878Y0151925D01*
X0685961Y0152037D01*
X0686048Y0152147D01*
X0686138Y0152255D01*
X0686230Y0152359D01*
X0686326Y0152461D01*
X0686425Y0152561D01*
X0686526Y0152657D01*
X0686630Y0152751D01*
X0686737Y0152841D01*
X0686846Y0152928D01*
X0686958Y0153013D01*
X0687072Y0153094D01*
X0687188Y0153172D01*
X0687306Y0153246D01*
X0687427Y0153317D01*
X0687549Y0153385D01*
X0687674Y0153449D01*
X0687800Y0153510D01*
X0687927Y0153567D01*
X0688057Y0153620D01*
X0688188Y0153670D01*
X0688320Y0153715D01*
X0688453Y0153758D01*
X0688588Y0153796D01*
X0688723Y0153830D01*
X0688860Y0153861D01*
X0688997Y0153888D01*
X0689135Y0153910D01*
X0689274Y0153929D01*
X0689413Y0153944D01*
X0689552Y0153955D01*
X0689692Y0153962D01*
X0689832Y0153965D01*
X0689972Y0153964D01*
X0690112Y0153959D01*
X0690251Y0153950D01*
X0690391Y0153937D01*
X0690530Y0153920D01*
X0690668Y0153899D01*
X0690806Y0153875D01*
X0690943Y0153846D01*
X0691079Y0153814D01*
X0691214Y0153777D01*
X0691348Y0153737D01*
X0691481Y0153693D01*
X0691612Y0153645D01*
X0691742Y0153594D01*
X0691871Y0153539D01*
X0691998Y0153480D01*
X0692123Y0153417D01*
X0692246Y0153352D01*
X0692368Y0153282D01*
X0692487Y0153209D01*
X0692605Y0153133D01*
X0692720Y0153054D01*
X0692833Y0152971D01*
X0692943Y0152885D01*
X0693051Y0152796D01*
X0693156Y0152704D01*
X0693259Y0152609D01*
X0693359Y0152511D01*
X0693456Y0152411D01*
X0693550Y0152307D01*
X0693642Y0152201D01*
X0693730Y0152093D01*
X0693815Y0151982D01*
X0693897Y0151868D01*
X0693976Y0151752D01*
X0694051Y0151635D01*
X0694123Y0151515D01*
X0694191Y0151393D01*
X0694256Y0151269D01*
X0694318Y0151143D01*
X0694376Y0151016D01*
X0694430Y0150887D01*
X0694481Y0150756D01*
X0694527Y0150624D01*
X0694570Y0150491D01*
X0694610Y0150357D01*
X0694645Y0150222D01*
X0694677Y0150085D01*
X0694704Y0149948D01*
X0694728Y0149810D01*
X0694748Y0149672D01*
X0694764Y0149533D01*
X0694776Y0149393D01*
X0694784Y0149254D01*
X0694788Y0149114D01*
X0694788Y0148974D01*
X0694784Y0148834D01*
X0694776Y0148695D01*
X0694764Y0148555D01*
X0694748Y0148416D01*
X0694728Y0148278D01*
X0694704Y0148140D01*
X0694677Y0148003D01*
X0694645Y0147866D01*
X0694610Y0147731D01*
X0694570Y0147597D01*
X0694527Y0147464D01*
X0694481Y0147332D01*
X0694430Y0147201D01*
X0694376Y0147072D01*
X0694318Y0146945D01*
X0694256Y0146819D01*
X0694191Y0146695D01*
X0694123Y0146573D01*
X0694051Y0146453D01*
X0693976Y0146336D01*
X0693897Y0146220D01*
X0693815Y0146106D01*
X0693730Y0145995D01*
X0693642Y0145887D01*
X0693550Y0145781D01*
X0693456Y0145677D01*
X0693359Y0145577D01*
X0693259Y0145479D01*
X0693156Y0145384D01*
X0693051Y0145292D01*
X0692943Y0145203D01*
X0692833Y0145117D01*
X0692720Y0145034D01*
X0692605Y0144955D01*
X0692487Y0144879D01*
X0692368Y0144806D01*
X0692246Y0144736D01*
X0692123Y0144671D01*
X0691998Y0144608D01*
X0691871Y0144549D01*
X0691742Y0144494D01*
X0691612Y0144443D01*
X0691481Y0144395D01*
X0691348Y0144351D01*
X0691214Y0144311D01*
X0691079Y0144274D01*
X0690943Y0144242D01*
X0690806Y0144213D01*
X0690668Y0144189D01*
X0690530Y0144168D01*
X0690391Y0144151D01*
X0690251Y0144138D01*
X0690112Y0144129D01*
X0689972Y0144124D01*
X0689832Y0144123D01*
X0689692Y0144126D01*
X0689552Y0144133D01*
X0689413Y0144144D01*
X0689274Y0144159D01*
X0689135Y0144178D01*
X0688997Y0144200D01*
X0688860Y0144227D01*
X0688723Y0144258D01*
X0688588Y0144292D01*
X0688453Y0144330D01*
X0688320Y0144373D01*
X0688188Y0144418D01*
X0688057Y0144468D01*
X0687927Y0144521D01*
X0687800Y0144578D01*
X0687674Y0144639D01*
X0687549Y0144703D01*
X0687427Y0144771D01*
X0687306Y0144842D01*
X0687188Y0144916D01*
X0687072Y0144994D01*
X0686958Y0145075D01*
X0686846Y0145160D01*
X0686737Y0145247D01*
X0686630Y0145337D01*
X0686526Y0145431D01*
X0686425Y0145527D01*
X0686326Y0145627D01*
X0686230Y0145729D01*
X0686138Y0145833D01*
X0686048Y0145941D01*
X0685961Y0146051D01*
X0685878Y0146163D01*
X0685797Y0146277D01*
X0685720Y0146394D01*
X0685647Y0146513D01*
X0685576Y0146634D01*
X0685510Y0146757D01*
X0685446Y0146882D01*
X0685387Y0147008D01*
X0685331Y0147137D01*
X0685278Y0147266D01*
X0685230Y0147397D01*
X0685185Y0147530D01*
X0685144Y0147664D01*
X0685106Y0147799D01*
X0685073Y0147934D01*
X0685043Y0148071D01*
X0685017Y0148209D01*
X0684996Y0148347D01*
X0684978Y0148486D01*
X0684964Y0148625D01*
X0684954Y0148764D01*
X0684948Y0148904D01*
X0684946Y0149044D01*
X0769946Y0014044D02*
X0769948Y0014184D01*
X0769954Y0014324D01*
X0769964Y0014463D01*
X0769978Y0014602D01*
X0769996Y0014741D01*
X0770017Y0014879D01*
X0770043Y0015017D01*
X0770073Y0015154D01*
X0770106Y0015289D01*
X0770144Y0015424D01*
X0770185Y0015558D01*
X0770230Y0015691D01*
X0770278Y0015822D01*
X0770331Y0015951D01*
X0770387Y0016080D01*
X0770446Y0016206D01*
X0770510Y0016331D01*
X0770576Y0016454D01*
X0770647Y0016575D01*
X0770720Y0016694D01*
X0770797Y0016811D01*
X0770878Y0016925D01*
X0770961Y0017037D01*
X0771048Y0017147D01*
X0771138Y0017255D01*
X0771230Y0017359D01*
X0771326Y0017461D01*
X0771425Y0017561D01*
X0771526Y0017657D01*
X0771630Y0017751D01*
X0771737Y0017841D01*
X0771846Y0017928D01*
X0771958Y0018013D01*
X0772072Y0018094D01*
X0772188Y0018172D01*
X0772306Y0018246D01*
X0772427Y0018317D01*
X0772549Y0018385D01*
X0772674Y0018449D01*
X0772800Y0018510D01*
X0772927Y0018567D01*
X0773057Y0018620D01*
X0773188Y0018670D01*
X0773320Y0018715D01*
X0773453Y0018758D01*
X0773588Y0018796D01*
X0773723Y0018830D01*
X0773860Y0018861D01*
X0773997Y0018888D01*
X0774135Y0018910D01*
X0774274Y0018929D01*
X0774413Y0018944D01*
X0774552Y0018955D01*
X0774692Y0018962D01*
X0774832Y0018965D01*
X0774972Y0018964D01*
X0775112Y0018959D01*
X0775251Y0018950D01*
X0775391Y0018937D01*
X0775530Y0018920D01*
X0775668Y0018899D01*
X0775806Y0018875D01*
X0775943Y0018846D01*
X0776079Y0018814D01*
X0776214Y0018777D01*
X0776348Y0018737D01*
X0776481Y0018693D01*
X0776612Y0018645D01*
X0776742Y0018594D01*
X0776871Y0018539D01*
X0776998Y0018480D01*
X0777123Y0018417D01*
X0777246Y0018352D01*
X0777368Y0018282D01*
X0777487Y0018209D01*
X0777605Y0018133D01*
X0777720Y0018054D01*
X0777833Y0017971D01*
X0777943Y0017885D01*
X0778051Y0017796D01*
X0778156Y0017704D01*
X0778259Y0017609D01*
X0778359Y0017511D01*
X0778456Y0017411D01*
X0778550Y0017307D01*
X0778642Y0017201D01*
X0778730Y0017093D01*
X0778815Y0016982D01*
X0778897Y0016868D01*
X0778976Y0016752D01*
X0779051Y0016635D01*
X0779123Y0016515D01*
X0779191Y0016393D01*
X0779256Y0016269D01*
X0779318Y0016143D01*
X0779376Y0016016D01*
X0779430Y0015887D01*
X0779481Y0015756D01*
X0779527Y0015624D01*
X0779570Y0015491D01*
X0779610Y0015357D01*
X0779645Y0015222D01*
X0779677Y0015085D01*
X0779704Y0014948D01*
X0779728Y0014810D01*
X0779748Y0014672D01*
X0779764Y0014533D01*
X0779776Y0014393D01*
X0779784Y0014254D01*
X0779788Y0014114D01*
X0779788Y0013974D01*
X0779784Y0013834D01*
X0779776Y0013695D01*
X0779764Y0013555D01*
X0779748Y0013416D01*
X0779728Y0013278D01*
X0779704Y0013140D01*
X0779677Y0013003D01*
X0779645Y0012866D01*
X0779610Y0012731D01*
X0779570Y0012597D01*
X0779527Y0012464D01*
X0779481Y0012332D01*
X0779430Y0012201D01*
X0779376Y0012072D01*
X0779318Y0011945D01*
X0779256Y0011819D01*
X0779191Y0011695D01*
X0779123Y0011573D01*
X0779051Y0011453D01*
X0778976Y0011336D01*
X0778897Y0011220D01*
X0778815Y0011106D01*
X0778730Y0010995D01*
X0778642Y0010887D01*
X0778550Y0010781D01*
X0778456Y0010677D01*
X0778359Y0010577D01*
X0778259Y0010479D01*
X0778156Y0010384D01*
X0778051Y0010292D01*
X0777943Y0010203D01*
X0777833Y0010117D01*
X0777720Y0010034D01*
X0777605Y0009955D01*
X0777487Y0009879D01*
X0777368Y0009806D01*
X0777246Y0009736D01*
X0777123Y0009671D01*
X0776998Y0009608D01*
X0776871Y0009549D01*
X0776742Y0009494D01*
X0776612Y0009443D01*
X0776481Y0009395D01*
X0776348Y0009351D01*
X0776214Y0009311D01*
X0776079Y0009274D01*
X0775943Y0009242D01*
X0775806Y0009213D01*
X0775668Y0009189D01*
X0775530Y0009168D01*
X0775391Y0009151D01*
X0775251Y0009138D01*
X0775112Y0009129D01*
X0774972Y0009124D01*
X0774832Y0009123D01*
X0774692Y0009126D01*
X0774552Y0009133D01*
X0774413Y0009144D01*
X0774274Y0009159D01*
X0774135Y0009178D01*
X0773997Y0009200D01*
X0773860Y0009227D01*
X0773723Y0009258D01*
X0773588Y0009292D01*
X0773453Y0009330D01*
X0773320Y0009373D01*
X0773188Y0009418D01*
X0773057Y0009468D01*
X0772927Y0009521D01*
X0772800Y0009578D01*
X0772674Y0009639D01*
X0772549Y0009703D01*
X0772427Y0009771D01*
X0772306Y0009842D01*
X0772188Y0009916D01*
X0772072Y0009994D01*
X0771958Y0010075D01*
X0771846Y0010160D01*
X0771737Y0010247D01*
X0771630Y0010337D01*
X0771526Y0010431D01*
X0771425Y0010527D01*
X0771326Y0010627D01*
X0771230Y0010729D01*
X0771138Y0010833D01*
X0771048Y0010941D01*
X0770961Y0011051D01*
X0770878Y0011163D01*
X0770797Y0011277D01*
X0770720Y0011394D01*
X0770647Y0011513D01*
X0770576Y0011634D01*
X0770510Y0011757D01*
X0770446Y0011882D01*
X0770387Y0012008D01*
X0770331Y0012137D01*
X0770278Y0012266D01*
X0770230Y0012397D01*
X0770185Y0012530D01*
X0770144Y0012664D01*
X0770106Y0012799D01*
X0770073Y0012934D01*
X0770043Y0013071D01*
X0770017Y0013209D01*
X0769996Y0013347D01*
X0769978Y0013486D01*
X0769964Y0013625D01*
X0769954Y0013764D01*
X0769948Y0013904D01*
X0769946Y0014044D01*
D12*
X0279867Y0066544D03*
X0269867Y0066544D03*
X0259867Y0066544D03*
X0249867Y0066544D03*
X0239867Y0066544D03*
X0229867Y0066544D03*
X0219867Y0066544D03*
X0209867Y0066544D03*
X0199867Y0066544D03*
X0189867Y0066544D03*
X0179867Y0066544D03*
X0169867Y0066544D03*
X0159867Y0066544D03*
X0149867Y0066544D03*
X0139867Y0066544D03*
X0129867Y0066544D03*
X0119867Y0066544D03*
X0109867Y0066544D03*
X0099867Y0066544D03*
X0089867Y0066544D03*
X0079867Y0066544D03*
X0069867Y0066544D03*
X0059867Y0066544D03*
X0049867Y0066544D03*
X0074867Y0079044D03*
X0084867Y0079044D03*
X0094867Y0079044D03*
X0104867Y0079044D03*
X0114867Y0079044D03*
X0229867Y0076544D03*
X0229867Y0086544D03*
X0229867Y0096544D03*
X0229867Y0106544D03*
X0229867Y0116544D03*
X0229867Y0126544D03*
X0219867Y0126544D03*
X0209867Y0126544D03*
X0199867Y0126544D03*
X0189867Y0126544D03*
X0179867Y0126544D03*
X0169867Y0126544D03*
X0159867Y0126544D03*
X0149867Y0126544D03*
X0139867Y0126544D03*
X0129867Y0126544D03*
X0119867Y0126544D03*
X0109867Y0126544D03*
X0099867Y0126544D03*
X0089867Y0126544D03*
X0079867Y0126544D03*
X0069867Y0126544D03*
X0059867Y0126544D03*
X0049867Y0126544D03*
X0059867Y0116544D03*
X0079867Y0116544D03*
X0089867Y0116544D03*
X0099867Y0116544D03*
X0239867Y0126544D03*
X0249867Y0126544D03*
X0259867Y0126544D03*
X0269867Y0126544D03*
X0279867Y0126544D03*
D13*
X0279867Y0111544D03*
X0269867Y0111544D03*
X0259867Y0111544D03*
X0249867Y0111544D03*
X0239867Y0111544D03*
X0219867Y0111544D03*
X0209867Y0111544D03*
X0199867Y0111544D03*
X0139867Y0111544D03*
X0129867Y0111544D03*
X0119867Y0111544D03*
X0109867Y0111544D03*
X0109867Y0091544D03*
X0119867Y0091544D03*
X0129867Y0091544D03*
X0139867Y0091544D03*
X0199867Y0091544D03*
X0209867Y0091544D03*
X0219867Y0091544D03*
X0239867Y0091544D03*
X0249867Y0091544D03*
X0259867Y0091544D03*
X0269867Y0091544D03*
X0279867Y0091544D03*
D14*
X0054867Y0091544D02*
X0048371Y0091544D01*
X0048371Y0101544D02*
X0054867Y0101544D01*
X0399867Y0027292D02*
X0399867Y0020796D01*
X0409867Y0020796D02*
X0409867Y0027292D01*
X0419867Y0027292D02*
X0419867Y0020796D01*
D15*
X0631402Y0077154D03*
X0644788Y0077154D03*
X0658174Y0077154D03*
X0671560Y0077154D03*
X0684945Y0077154D03*
X0698331Y0077154D03*
X0711402Y0077154D03*
X0724788Y0077154D03*
X0738174Y0077154D03*
X0751560Y0077154D03*
X0764945Y0077154D03*
X0778331Y0077154D03*
X0771638Y0097154D03*
X0758252Y0097154D03*
X0744867Y0097154D03*
X0731481Y0097154D03*
X0718095Y0097154D03*
X0691638Y0097154D03*
X0678252Y0097154D03*
X0664867Y0097154D03*
X0651481Y0097154D03*
X0638095Y0097154D03*
D16*
X0507441Y0134044D02*
X0502292Y0134044D01*
X0502292Y0144044D02*
X0507441Y0144044D01*
X0507441Y0154044D02*
X0502292Y0154044D01*
X0502292Y0164044D02*
X0507441Y0164044D01*
X0507441Y0174044D02*
X0502292Y0174044D01*
X0502292Y0184044D02*
X0507441Y0184044D01*
X0467441Y0184044D02*
X0462292Y0184044D01*
X0462292Y0174044D02*
X0467441Y0174044D01*
X0467441Y0164044D02*
X0462292Y0164044D01*
X0462292Y0154044D02*
X0467441Y0154044D01*
X0467441Y0144044D02*
X0462292Y0144044D01*
X0462292Y0134044D02*
X0467441Y0134044D01*
D17*
X0447867Y0139044D02*
X0441867Y0139044D01*
X0441867Y0129044D02*
X0447867Y0129044D01*
X0447867Y0119044D02*
X0441867Y0119044D01*
X0407867Y0114044D02*
X0401867Y0114044D01*
X0377867Y0114044D02*
X0371867Y0114044D01*
X0347867Y0114044D02*
X0341867Y0114044D01*
X0317867Y0114044D02*
X0311867Y0114044D01*
X0311867Y0104044D02*
X0317867Y0104044D01*
X0341867Y0104044D02*
X0347867Y0104044D01*
X0371867Y0104044D02*
X0377867Y0104044D01*
X0401867Y0104044D02*
X0407867Y0104044D01*
X0407867Y0094044D02*
X0401867Y0094044D01*
X0377867Y0094044D02*
X0371867Y0094044D01*
X0347867Y0094044D02*
X0341867Y0094044D01*
X0317867Y0094044D02*
X0311867Y0094044D01*
X0311867Y0084044D02*
X0317867Y0084044D01*
X0341867Y0084044D02*
X0347867Y0084044D01*
X0371867Y0084044D02*
X0377867Y0084044D01*
X0401867Y0084044D02*
X0407867Y0084044D01*
X0379867Y0037044D02*
X0379867Y0031044D01*
X0369867Y0031044D02*
X0369867Y0037044D01*
X0359867Y0037044D02*
X0359867Y0031044D01*
X0349867Y0031044D02*
X0349867Y0037044D01*
X0339867Y0037044D02*
X0339867Y0031044D01*
X0329867Y0031044D02*
X0329867Y0037044D01*
X0319867Y0037044D02*
X0319867Y0031044D01*
X0309867Y0031044D02*
X0309867Y0037044D01*
X0299867Y0037044D02*
X0299867Y0031044D01*
X0289867Y0031044D02*
X0289867Y0037044D01*
X0279867Y0037044D02*
X0279867Y0031044D01*
X0269867Y0031044D02*
X0269867Y0037044D01*
X0259867Y0037044D02*
X0259867Y0031044D01*
X0249867Y0031044D02*
X0249867Y0037044D01*
X0239867Y0037044D02*
X0239867Y0031044D01*
X0229867Y0031044D02*
X0229867Y0037044D01*
X0219867Y0037044D02*
X0219867Y0031044D01*
X0209867Y0031044D02*
X0209867Y0037044D01*
X0199867Y0037044D02*
X0199867Y0031044D01*
X0189867Y0031044D02*
X0189867Y0037044D01*
X0179867Y0037044D02*
X0179867Y0031044D01*
X0169867Y0031044D02*
X0169867Y0037044D01*
X0159867Y0037044D02*
X0159867Y0031044D01*
X0149867Y0031044D02*
X0149867Y0037044D01*
X0139867Y0037044D02*
X0139867Y0031044D01*
X0129867Y0031044D02*
X0129867Y0037044D01*
X0119867Y0037044D02*
X0119867Y0031044D01*
X0109867Y0031044D02*
X0109867Y0037044D01*
X0099867Y0037044D02*
X0099867Y0031044D01*
X0089867Y0031044D02*
X0089867Y0037044D01*
X0079867Y0037044D02*
X0079867Y0031044D01*
X0069867Y0031044D02*
X0069867Y0037044D01*
X0059867Y0037044D02*
X0059867Y0031044D01*
X0049867Y0031044D02*
X0049867Y0037044D01*
X0039867Y0037044D02*
X0039867Y0031044D01*
X0029867Y0031044D02*
X0029867Y0037044D01*
X0019867Y0037044D02*
X0019867Y0031044D01*
X0009867Y0031044D02*
X0009867Y0037044D01*
X0009867Y0022044D02*
X0009867Y0016044D01*
X0019867Y0016044D02*
X0019867Y0022044D01*
X0029867Y0022044D02*
X0029867Y0016044D01*
X0039867Y0016044D02*
X0039867Y0022044D01*
X0049867Y0022044D02*
X0049867Y0016044D01*
X0059867Y0016044D02*
X0059867Y0022044D01*
X0069867Y0022044D02*
X0069867Y0016044D01*
X0079867Y0016044D02*
X0079867Y0022044D01*
X0089867Y0022044D02*
X0089867Y0016044D01*
X0099867Y0016044D02*
X0099867Y0022044D01*
X0109867Y0022044D02*
X0109867Y0016044D01*
X0119867Y0016044D02*
X0119867Y0022044D01*
X0129867Y0022044D02*
X0129867Y0016044D01*
X0139867Y0016044D02*
X0139867Y0022044D01*
X0149867Y0022044D02*
X0149867Y0016044D01*
X0159867Y0016044D02*
X0159867Y0022044D01*
X0169867Y0022044D02*
X0169867Y0016044D01*
X0179867Y0016044D02*
X0179867Y0022044D01*
X0189867Y0022044D02*
X0189867Y0016044D01*
X0199867Y0016044D02*
X0199867Y0022044D01*
X0209867Y0022044D02*
X0209867Y0016044D01*
X0219867Y0016044D02*
X0219867Y0022044D01*
X0229867Y0022044D02*
X0229867Y0016044D01*
X0239867Y0016044D02*
X0239867Y0022044D01*
X0249867Y0022044D02*
X0249867Y0016044D01*
X0259867Y0016044D02*
X0259867Y0022044D01*
X0269867Y0022044D02*
X0269867Y0016044D01*
X0279867Y0016044D02*
X0279867Y0022044D01*
X0289867Y0022044D02*
X0289867Y0016044D01*
X0299867Y0016044D02*
X0299867Y0022044D01*
X0309867Y0022044D02*
X0309867Y0016044D01*
X0319867Y0016044D02*
X0319867Y0022044D01*
X0329867Y0022044D02*
X0329867Y0016044D01*
X0339867Y0016044D02*
X0339867Y0022044D01*
X0349867Y0022044D02*
X0349867Y0016044D01*
X0359867Y0016044D02*
X0359867Y0022044D01*
X0369867Y0022044D02*
X0369867Y0016044D01*
X0379867Y0016044D02*
X0379867Y0022044D01*
X0017867Y0081544D02*
X0011867Y0081544D01*
X0011867Y0091544D02*
X0017867Y0091544D01*
X0017867Y0101544D02*
X0011867Y0101544D01*
X0011867Y0111544D02*
X0017867Y0111544D01*
X0019867Y0156044D02*
X0019867Y0162044D01*
X0029867Y0162044D02*
X0029867Y0156044D01*
X0039867Y0156044D02*
X0039867Y0162044D01*
X0049867Y0162044D02*
X0049867Y0156044D01*
X0059867Y0156044D02*
X0059867Y0162044D01*
X0069867Y0162044D02*
X0069867Y0156044D01*
X0079867Y0156044D02*
X0079867Y0162044D01*
X0089867Y0162044D02*
X0089867Y0156044D01*
X0099867Y0156044D02*
X0099867Y0162044D01*
X0109867Y0162044D02*
X0109867Y0156044D01*
X0119867Y0156044D02*
X0119867Y0162044D01*
X0129867Y0162044D02*
X0129867Y0156044D01*
X0139867Y0156044D02*
X0139867Y0162044D01*
X0149867Y0162044D02*
X0149867Y0156044D01*
X0159867Y0156044D02*
X0159867Y0162044D01*
X0169867Y0162044D02*
X0169867Y0156044D01*
X0179867Y0156044D02*
X0179867Y0162044D01*
X0189867Y0162044D02*
X0189867Y0156044D01*
X0199867Y0156044D02*
X0199867Y0162044D01*
X0209867Y0162044D02*
X0209867Y0156044D01*
X0219867Y0156044D02*
X0219867Y0162044D01*
X0229867Y0162044D02*
X0229867Y0156044D01*
X0239867Y0156044D02*
X0239867Y0162044D01*
X0249867Y0162044D02*
X0249867Y0156044D01*
X0259867Y0156044D02*
X0259867Y0162044D01*
X0269867Y0162044D02*
X0269867Y0156044D01*
X0279867Y0156044D02*
X0279867Y0162044D01*
X0289867Y0162044D02*
X0289867Y0156044D01*
X0299867Y0156044D02*
X0299867Y0162044D01*
X0309867Y0162044D02*
X0309867Y0156044D01*
X0319867Y0156044D02*
X0319867Y0162044D01*
X0329867Y0162044D02*
X0329867Y0156044D01*
X0339867Y0156044D02*
X0339867Y0162044D01*
X0349867Y0162044D02*
X0349867Y0156044D01*
X0359867Y0156044D02*
X0359867Y0162044D01*
X0369867Y0162044D02*
X0369867Y0156044D01*
X0379867Y0156044D02*
X0379867Y0162044D01*
X0389867Y0162044D02*
X0389867Y0156044D01*
X0399867Y0156044D02*
X0399867Y0162044D01*
X0409867Y0162044D02*
X0409867Y0156044D01*
X0419867Y0156044D02*
X0419867Y0162044D01*
X0441867Y0159044D02*
X0447867Y0159044D01*
X0447867Y0149044D02*
X0441867Y0149044D01*
X0419867Y0171044D02*
X0419867Y0177044D01*
X0409867Y0177044D02*
X0409867Y0171044D01*
X0399867Y0171044D02*
X0399867Y0177044D01*
X0389867Y0177044D02*
X0389867Y0171044D01*
X0379867Y0171044D02*
X0379867Y0177044D01*
X0369867Y0177044D02*
X0369867Y0171044D01*
X0359867Y0171044D02*
X0359867Y0177044D01*
X0349867Y0177044D02*
X0349867Y0171044D01*
X0339867Y0171044D02*
X0339867Y0177044D01*
X0329867Y0177044D02*
X0329867Y0171044D01*
X0319867Y0171044D02*
X0319867Y0177044D01*
X0309867Y0177044D02*
X0309867Y0171044D01*
X0299867Y0171044D02*
X0299867Y0177044D01*
X0289867Y0177044D02*
X0289867Y0171044D01*
X0279867Y0171044D02*
X0279867Y0177044D01*
X0269867Y0177044D02*
X0269867Y0171044D01*
X0259867Y0171044D02*
X0259867Y0177044D01*
X0249867Y0177044D02*
X0249867Y0171044D01*
X0239867Y0171044D02*
X0239867Y0177044D01*
X0229867Y0177044D02*
X0229867Y0171044D01*
X0219867Y0171044D02*
X0219867Y0177044D01*
X0209867Y0177044D02*
X0209867Y0171044D01*
X0199867Y0171044D02*
X0199867Y0177044D01*
X0189867Y0177044D02*
X0189867Y0171044D01*
X0179867Y0171044D02*
X0179867Y0177044D01*
X0169867Y0177044D02*
X0169867Y0171044D01*
X0159867Y0171044D02*
X0159867Y0177044D01*
X0149867Y0177044D02*
X0149867Y0171044D01*
X0139867Y0171044D02*
X0139867Y0177044D01*
X0129867Y0177044D02*
X0129867Y0171044D01*
X0119867Y0171044D02*
X0119867Y0177044D01*
X0109867Y0177044D02*
X0109867Y0171044D01*
X0099867Y0171044D02*
X0099867Y0177044D01*
X0089867Y0177044D02*
X0089867Y0171044D01*
X0079867Y0171044D02*
X0079867Y0177044D01*
X0069867Y0177044D02*
X0069867Y0171044D01*
X0059867Y0171044D02*
X0059867Y0177044D01*
X0049867Y0177044D02*
X0049867Y0171044D01*
X0039867Y0171044D02*
X0039867Y0177044D01*
X0029867Y0177044D02*
X0029867Y0171044D01*
X0019867Y0171044D02*
X0019867Y0177044D01*
X0009867Y0177044D02*
X0009867Y0171044D01*
X0009867Y0162044D02*
X0009867Y0156044D01*
D18*
X0529867Y0176076D02*
X0529867Y0182013D01*
X0539867Y0182013D02*
X0539867Y0176076D01*
X0549867Y0176076D02*
X0549867Y0182013D01*
D19*
X0519867Y0039044D03*
X0439867Y0039044D03*
D20*
X0439867Y0049044D03*
X0439867Y0059044D03*
X0439867Y0069044D03*
X0439867Y0079044D03*
X0439867Y0089044D03*
X0519867Y0089044D03*
X0519867Y0079044D03*
X0519867Y0069044D03*
X0519867Y0059044D03*
X0519867Y0049044D03*
D21*
X0529867Y0121544D03*
X0554867Y0154044D03*
D22*
X0544867Y0154044D03*
X0539867Y0121544D03*
D23*
X0640067Y0150144D02*
X0640067Y0157944D01*
X0659767Y0157944D02*
X0659767Y0150144D01*
X0720067Y0150144D02*
X0720067Y0157944D01*
X0739767Y0157944D02*
X0739767Y0150144D01*
X0760067Y0150144D02*
X0760067Y0157944D01*
X0779767Y0157944D02*
X0779767Y0150144D01*
D24*
X0534867Y0089044D03*
D25*
X0634867Y0069044D03*
X0644867Y0069044D03*
X0714867Y0069044D03*
X0724867Y0069044D03*
X0724867Y0039044D03*
X0714867Y0039044D03*
X0644867Y0039044D03*
X0634867Y0039044D03*
X0427367Y0041544D03*
X0419867Y0056544D03*
X0389867Y0056544D03*
X0427367Y0071544D03*
X0629867Y0119044D03*
X0649867Y0119044D03*
X0679867Y0119044D03*
X0699867Y0119044D03*
X0709867Y0119044D03*
X0729867Y0119044D03*
X0759867Y0119044D03*
X0779867Y0119044D03*
D26*
X0599867Y0074044D03*
X0587367Y0071544D03*
X0554867Y0068544D03*
X0542367Y0073544D03*
X0589867Y0049044D03*
X0609867Y0049044D03*
X0664867Y0049044D03*
X0694867Y0049044D03*
X0744867Y0049044D03*
X0774867Y0049044D03*
X0579867Y0134044D03*
X0564867Y0134044D03*
D27*
X0554867Y0134044D03*
X0589867Y0134044D03*
X0609867Y0074044D03*
X0577367Y0071544D03*
X0564867Y0068544D03*
X0532367Y0073544D03*
X0579867Y0049044D03*
X0619867Y0049044D03*
X0664867Y0059044D03*
X0694867Y0059044D03*
X0744867Y0059044D03*
X0774867Y0059044D03*
D28*
X0609867Y0089619D02*
X0609867Y0098469D01*
X0609867Y0149619D02*
X0609867Y0158469D01*
D29*
X0589867Y0159044D03*
X0589867Y0169044D03*
X0589867Y0179044D03*
X0579867Y0109044D03*
X0569867Y0109044D03*
X0559867Y0109044D03*
X0559867Y0044044D03*
X0559867Y0034044D03*
X0589867Y0029044D03*
X0599867Y0029044D03*
X0609867Y0029044D03*
X0559867Y0024044D03*
D30*
X0522367Y0142670D03*
X0522367Y0150544D03*
X0522367Y0158418D03*
D31*
X0549867Y0159044D02*
X0554867Y0154044D01*
X0549867Y0159044D02*
X0549867Y0179044D01*
X0629867Y0119044D02*
X0629867Y0078690D01*
X0631402Y0077154D01*
X0651481Y0097154D02*
X0671481Y0077154D01*
X0671560Y0077154D01*
X0671560Y0055737D01*
X0664867Y0049044D01*
X0744867Y0049044D02*
X0751560Y0055737D01*
X0751560Y0077154D01*
X0751481Y0077154D01*
X0731481Y0097154D01*
X0711402Y0077154D02*
X0709867Y0078690D01*
X0709867Y0119044D01*
X0699867Y0119044D02*
X0699867Y0078690D01*
X0698331Y0077154D01*
D32*
X0709867Y0064044D02*
X0714867Y0069044D01*
X0719867Y0064044D02*
X0724867Y0069044D01*
X0719867Y0064044D02*
X0719867Y0014044D01*
X0714867Y0009044D01*
X0700707Y0009044D01*
X0699818Y0008155D01*
X0455756Y0008155D01*
X0449867Y0014044D01*
X0454867Y0014044D02*
X0456064Y0014044D01*
X0460353Y0009755D01*
X0699156Y0009755D01*
X0709867Y0020466D01*
X0709867Y0064044D01*
X0644867Y0069044D02*
X0639867Y0064044D01*
X0639867Y0029044D01*
X0624867Y0014044D01*
X0483669Y0014044D01*
X0480980Y0011355D01*
X0463753Y0011355D01*
X0461064Y0014044D01*
X0459867Y0014044D01*
X0464867Y0014044D02*
X0469867Y0019044D01*
X0624867Y0019044D01*
X0629867Y0024044D01*
X0629867Y0064044D01*
X0634867Y0069044D01*
X0523838Y0067399D02*
X0519867Y0063427D01*
X0519867Y0059044D01*
X0523838Y0067399D02*
X0523838Y0070689D01*
X0521512Y0073016D01*
X0515895Y0073016D01*
X0489867Y0099044D01*
X0434867Y0099044D01*
X0434867Y0104044D02*
X0504867Y0104044D01*
X0509867Y0099044D01*
X0509867Y0089044D01*
X0519867Y0079044D01*
X0519867Y0069044D02*
X0454867Y0069044D01*
X0448867Y0075044D01*
X0448867Y0083844D01*
X0412067Y0082304D02*
X0409606Y0079844D01*
X0405667Y0079844D01*
X0399867Y0074044D01*
X0397129Y0074044D01*
X0395529Y0072444D01*
X0315264Y0072444D01*
X0306067Y0081642D01*
X0306067Y0087844D01*
X0289067Y0104844D01*
X0287067Y0104844D01*
X0287067Y0100844D02*
X0288067Y0100844D01*
X0304467Y0084444D01*
X0304467Y0080979D01*
X0316401Y0069044D01*
X0369867Y0069044D01*
X0374867Y0064044D01*
X0364867Y0060644D02*
X0358067Y0067444D01*
X0315739Y0067444D01*
X0302867Y0080316D01*
X0302867Y0081044D01*
X0287067Y0096844D01*
X0290067Y0108844D02*
X0307667Y0091244D01*
X0307667Y0082304D01*
X0315927Y0074044D01*
X0394867Y0074044D01*
X0404867Y0084044D01*
X0412067Y0082304D02*
X0412067Y0095784D01*
X0404867Y0102984D01*
X0404867Y0104044D01*
X0409867Y0109044D02*
X0404867Y0114044D01*
X0374867Y0114044D01*
X0344867Y0114044D01*
X0314867Y0114044D01*
X0290067Y0108844D02*
X0287067Y0108844D01*
X0279867Y0111544D02*
X0274867Y0106544D01*
X0274867Y0090254D01*
X0278024Y0087096D01*
X0284015Y0087096D01*
X0284867Y0086244D01*
X0284867Y0059044D01*
X0278067Y0055844D02*
X0274867Y0059044D01*
X0274867Y0086544D01*
X0269867Y0091544D01*
X0265419Y0089702D02*
X0265419Y0100806D01*
X0274315Y0109702D01*
X0274315Y0113729D01*
X0283967Y0123381D01*
X0283967Y0128144D01*
X0290067Y0134244D01*
X0366269Y0134244D01*
X0381069Y0149044D01*
X0394867Y0149044D01*
X0397667Y0151844D01*
X0411606Y0151844D01*
X0418806Y0159044D01*
X0419867Y0159044D01*
X0389867Y0159044D02*
X0388806Y0159044D01*
X0365606Y0135844D01*
X0276667Y0135844D01*
X0274867Y0134044D01*
X0274867Y0116544D01*
X0269867Y0111544D01*
X0264867Y0116544D02*
X0264867Y0134044D01*
X0268267Y0137444D01*
X0357206Y0137444D01*
X0378806Y0159044D01*
X0379867Y0159044D01*
X0369867Y0159044D02*
X0368806Y0159044D01*
X0348806Y0139044D01*
X0257667Y0139044D01*
X0254867Y0136244D01*
X0254867Y0116544D01*
X0249867Y0111544D01*
X0244867Y0116544D02*
X0239867Y0111544D01*
X0244867Y0116544D02*
X0244867Y0139044D01*
X0246467Y0140644D01*
X0340406Y0140644D01*
X0358806Y0159044D01*
X0359867Y0159044D01*
X0349867Y0159044D02*
X0348806Y0159044D01*
X0332006Y0142244D01*
X0228067Y0142244D01*
X0224867Y0139044D01*
X0224867Y0116544D01*
X0219867Y0111544D01*
X0214867Y0116544D02*
X0209867Y0111544D01*
X0204867Y0116544D02*
X0199867Y0111544D01*
X0198024Y0107096D02*
X0195419Y0109702D01*
X0179867Y0094150D01*
X0179867Y0094044D01*
X0177178Y0092930D02*
X0177178Y0106355D01*
X0184867Y0114044D01*
X0179867Y0114044D02*
X0169867Y0104044D01*
X0169867Y0066544D01*
X0179867Y0066544D02*
X0179867Y0090241D01*
X0177178Y0092930D01*
X0189867Y0086244D02*
X0189867Y0066544D01*
X0159867Y0066544D02*
X0159867Y0099044D01*
X0174867Y0114044D01*
X0195419Y0109702D02*
X0195419Y0120992D01*
X0189867Y0126544D01*
X0204867Y0116544D02*
X0204867Y0143044D01*
X0207267Y0145444D01*
X0315206Y0145444D01*
X0328806Y0159044D01*
X0329867Y0159044D01*
X0339867Y0159044D02*
X0324667Y0143844D01*
X0217667Y0143844D01*
X0214867Y0141044D01*
X0214867Y0116544D01*
X0229867Y0109044D02*
X0239867Y0119044D01*
X0259867Y0111544D02*
X0264867Y0116544D01*
X0229867Y0109044D02*
X0229867Y0106544D01*
X0229867Y0096544D02*
X0219315Y0107096D01*
X0198024Y0107096D01*
X0229867Y0096544D02*
X0254567Y0096544D01*
X0255267Y0095844D01*
X0259867Y0091544D02*
X0264867Y0086544D01*
X0264867Y0059044D01*
X0269667Y0054244D01*
X0348606Y0054244D01*
X0368806Y0034044D01*
X0369867Y0034044D01*
X0378806Y0034044D02*
X0357006Y0055844D01*
X0278067Y0055844D01*
X0256267Y0052644D02*
X0340206Y0052644D01*
X0358806Y0034044D01*
X0359867Y0034044D01*
X0349867Y0034044D02*
X0348806Y0034044D01*
X0331806Y0051044D01*
X0247867Y0051044D01*
X0244867Y0054044D01*
X0244867Y0086544D01*
X0239867Y0091544D01*
X0249867Y0091544D02*
X0254867Y0086544D01*
X0254867Y0054044D01*
X0256267Y0052644D01*
X0229467Y0049444D02*
X0323406Y0049444D01*
X0338806Y0034044D01*
X0339867Y0034044D01*
X0329867Y0034044D02*
X0328806Y0034044D01*
X0315006Y0047844D01*
X0216067Y0047844D01*
X0214867Y0049044D01*
X0214867Y0086544D01*
X0209867Y0091544D01*
X0204867Y0086544D02*
X0199867Y0091544D01*
X0219867Y0091544D02*
X0224867Y0086544D01*
X0224867Y0054044D01*
X0229467Y0049444D01*
X0207667Y0046244D02*
X0306606Y0046244D01*
X0318806Y0034044D01*
X0319867Y0034044D01*
X0309867Y0034044D02*
X0299267Y0044644D01*
X0149267Y0044644D01*
X0144867Y0049044D01*
X0144867Y0086544D01*
X0139867Y0091544D01*
X0134867Y0086544D02*
X0129867Y0091544D01*
X0124867Y0086544D02*
X0119867Y0091544D01*
X0124867Y0086544D02*
X0124867Y0049044D01*
X0132667Y0041244D01*
X0282667Y0041244D01*
X0289867Y0034044D01*
X0290867Y0043044D02*
X0299867Y0034044D01*
X0290867Y0043044D02*
X0139267Y0043044D01*
X0134867Y0047444D01*
X0134867Y0086544D01*
X0204867Y0086544D02*
X0204867Y0049044D01*
X0207667Y0046244D01*
X0269667Y0077444D02*
X0269667Y0085454D01*
X0265419Y0089702D01*
X0229967Y0096644D02*
X0229867Y0096544D01*
X0144867Y0116544D02*
X0144867Y0144044D01*
X0147867Y0147044D01*
X0307867Y0147044D01*
X0319867Y0159044D01*
X0309867Y0159044D02*
X0299467Y0148644D01*
X0139467Y0148644D01*
X0134867Y0144044D01*
X0134867Y0116544D01*
X0129867Y0111544D01*
X0124867Y0116544D02*
X0119867Y0111544D01*
X0124867Y0116544D02*
X0124867Y0147744D01*
X0127367Y0150244D01*
X0291067Y0150244D01*
X0299867Y0159044D01*
X0289867Y0159044D02*
X0288806Y0159044D01*
X0281606Y0151844D01*
X0117667Y0151844D01*
X0114867Y0149044D01*
X0114867Y0116544D01*
X0109867Y0111544D01*
X0099867Y0116544D02*
X0094867Y0121544D01*
X0094867Y0149044D01*
X0092067Y0151844D01*
X0047067Y0151844D01*
X0039867Y0159044D01*
X0039727Y0150244D02*
X0030927Y0159044D01*
X0029867Y0159044D01*
X0020927Y0159044D02*
X0031327Y0148644D01*
X0070267Y0148644D01*
X0074867Y0144044D01*
X0074867Y0121544D01*
X0079867Y0116544D01*
X0084867Y0121544D02*
X0089867Y0116544D01*
X0084867Y0121544D02*
X0084867Y0147044D01*
X0081667Y0150244D01*
X0039727Y0150244D01*
X0020927Y0159044D02*
X0019867Y0159044D01*
X0139867Y0111544D02*
X0144867Y0116544D01*
X0314867Y0094044D02*
X0344867Y0094044D01*
X0374867Y0094044D01*
X0404867Y0094044D01*
X0409867Y0109044D02*
X0559867Y0109044D01*
X0464867Y0154044D02*
X0459867Y0149044D01*
X0444867Y0149044D01*
X0464867Y0154044D02*
X0504867Y0154044D01*
X0520528Y0154044D01*
X0520803Y0154319D01*
X0538511Y0154319D01*
X0543086Y0149744D01*
X0546648Y0149744D01*
X0550948Y0154044D01*
X0554867Y0154044D01*
X0549867Y0159044D02*
X0549167Y0158344D01*
X0529867Y0165918D02*
X0529867Y0179044D01*
X0529867Y0165918D02*
X0522367Y0158418D01*
X0464867Y0164044D02*
X0449867Y0164044D01*
X0444867Y0159044D01*
X0427367Y0041544D02*
X0427367Y0029044D01*
X0589867Y0029044D01*
X0559867Y0034044D02*
X0524867Y0034044D01*
X0519867Y0039044D01*
X0439867Y0039044D01*
X0424405Y0029044D02*
X0421709Y0031740D01*
X0417563Y0031740D01*
X0409867Y0024044D01*
X0424405Y0029044D02*
X0427367Y0029044D01*
X0379867Y0034044D02*
X0378806Y0034044D01*
X0469867Y0014044D02*
X0479867Y0014044D01*
D33*
X0479867Y0014044D03*
X0469867Y0014044D03*
X0464867Y0014044D03*
X0459867Y0014044D03*
X0454867Y0014044D03*
X0449867Y0014044D03*
X0364867Y0060644D03*
X0374867Y0064044D03*
X0448867Y0083844D03*
X0434867Y0099044D03*
X0434867Y0104044D03*
X0287067Y0104844D03*
X0287067Y0100844D03*
X0287067Y0096844D03*
X0255267Y0095844D03*
X0284867Y0086244D03*
X0269667Y0077444D03*
X0284867Y0059044D03*
X0189867Y0086244D03*
X0179867Y0094044D03*
X0179867Y0114044D03*
X0184867Y0114044D03*
X0174867Y0114044D03*
X0239867Y0119044D03*
X0287067Y0108844D03*
D34*
X0529867Y0121544D02*
X0536267Y0115144D01*
X0562393Y0115144D01*
X0568493Y0109044D01*
X0569867Y0109044D01*
X0569867Y0089044D01*
X0587367Y0071544D01*
X0577367Y0071544D02*
X0559867Y0089044D01*
X0559867Y0109044D01*
X0554867Y0068544D02*
X0554867Y0047671D01*
X0553767Y0046571D01*
X0553767Y0041517D01*
X0559867Y0035417D01*
X0559867Y0034044D01*
X0586240Y0034044D01*
X0587340Y0035144D01*
X0592393Y0035144D01*
X0598493Y0029044D01*
X0599867Y0029044D01*
M02*
