G75*
%MOIN*%
%OFA0B0*%
%FSLAX25Y25*%
%IPPOS*%
%LPD*%
%AMOC8*
5,1,8,0,0,1.08239X$1,22.5*
%
%ADD10C,0.05000*%
%ADD11C,0.04000*%
%ADD12C,0.10643*%
%ADD13C,0.06600*%
%ADD14C,0.07296*%
%ADD15C,0.07296*%
%ADD16C,0.07800*%
%ADD17C,0.05950*%
%ADD18C,0.06800*%
%ADD19C,0.06737*%
%ADD20R,0.06343X0.06343*%
%ADD21C,0.06343*%
%ADD22OC8,0.07000*%
%ADD23C,0.07000*%
%ADD24C,0.08600*%
%ADD25OC8,0.06800*%
%ADD26OC8,0.06000*%
%ADD27OC8,0.07100*%
%ADD28C,0.07100*%
%ADD29C,0.09650*%
%ADD30C,0.07400*%
%ADD31C,0.05950*%
%ADD32C,0.03778*%
D10*
X0609867Y0094044D02*
X0614867Y0089044D01*
X0664867Y0089044D01*
X0664867Y0097344D01*
X0659867Y0105544D02*
X0651567Y0097244D01*
X0638067Y0097044D02*
X0637967Y0096944D01*
X0637967Y0096844D01*
X0638067Y0097044D02*
X0638067Y0107244D01*
X0649867Y0119044D01*
X0649867Y0164044D01*
X0654867Y0169044D01*
X0714867Y0169044D01*
X0719867Y0164044D01*
X0719867Y0154044D01*
X0739867Y0154044D02*
X0710767Y0124944D01*
X0697467Y0124944D01*
X0691467Y0118944D01*
X0691467Y0097244D01*
X0718067Y0097344D02*
X0718067Y0107244D01*
X0729867Y0119044D01*
X0729867Y0124044D01*
X0759867Y0154044D01*
X0779867Y0154044D02*
X0759867Y0134044D01*
X0759867Y0119044D01*
X0771667Y0107244D01*
X0771667Y0097244D01*
X0744967Y0097044D02*
X0744867Y0096944D01*
X0744867Y0089044D01*
X0664867Y0089044D01*
X0659867Y0105544D02*
X0659867Y0154044D01*
X0639867Y0154044D02*
X0609867Y0154044D01*
X0679867Y0119044D02*
X0689867Y0119044D01*
X0664867Y0049044D02*
X0774867Y0049044D01*
D11*
X0774867Y0059044D02*
X0744867Y0059044D01*
X0744867Y0089044D01*
X0664867Y0089044D02*
X0664867Y0059044D01*
X0694867Y0059044D01*
D12*
X0774867Y0014044D03*
X0689867Y0149044D03*
X0024867Y0134044D03*
X0024867Y0064044D03*
D13*
X0049867Y0066544D03*
X0059867Y0066544D03*
X0069867Y0066544D03*
X0079867Y0066544D03*
X0089867Y0066544D03*
X0099867Y0066544D03*
X0109867Y0066544D03*
X0119867Y0066544D03*
X0129867Y0066544D03*
X0139867Y0066544D03*
X0149867Y0066544D03*
X0159867Y0066544D03*
X0169867Y0066544D03*
X0179867Y0066544D03*
X0189867Y0066544D03*
X0199867Y0066544D03*
X0209867Y0066544D03*
X0219867Y0066544D03*
X0229867Y0066544D03*
X0239867Y0066544D03*
X0249867Y0066544D03*
X0259867Y0066544D03*
X0269867Y0066544D03*
X0279867Y0066544D03*
X0229867Y0076544D03*
X0229867Y0086544D03*
X0229867Y0096544D03*
X0229867Y0106544D03*
X0229867Y0116544D03*
X0229867Y0126544D03*
X0219867Y0126544D03*
X0209867Y0126544D03*
X0199867Y0126544D03*
X0189867Y0126544D03*
X0179867Y0126544D03*
X0169867Y0126544D03*
X0159867Y0126544D03*
X0149867Y0126544D03*
X0139867Y0126544D03*
X0129867Y0126544D03*
X0119867Y0126544D03*
X0109867Y0126544D03*
X0099867Y0126544D03*
X0089867Y0126544D03*
X0079867Y0126544D03*
X0069867Y0126544D03*
X0059867Y0126544D03*
X0049867Y0126544D03*
X0059867Y0116544D03*
X0079867Y0116544D03*
X0089867Y0116544D03*
X0099867Y0116544D03*
X0104867Y0079044D03*
X0114867Y0079044D03*
X0094867Y0079044D03*
X0084867Y0079044D03*
X0074867Y0079044D03*
X0239867Y0126544D03*
X0249867Y0126544D03*
X0259867Y0126544D03*
X0269867Y0126544D03*
X0279867Y0126544D03*
D14*
X0279867Y0111544D03*
X0269867Y0111544D03*
X0259867Y0111544D03*
X0249867Y0111544D03*
X0239867Y0111544D03*
X0219867Y0111544D03*
X0209867Y0111544D03*
X0199867Y0111544D03*
X0139867Y0111544D03*
X0129867Y0111544D03*
X0119867Y0111544D03*
X0109867Y0111544D03*
X0109867Y0091544D03*
X0119867Y0091544D03*
X0129867Y0091544D03*
X0139867Y0091544D03*
X0199867Y0091544D03*
X0209867Y0091544D03*
X0219867Y0091544D03*
X0239867Y0091544D03*
X0249867Y0091544D03*
X0259867Y0091544D03*
X0269867Y0091544D03*
X0279867Y0091544D03*
D15*
X0054867Y0091544D02*
X0048371Y0091544D01*
X0048371Y0101544D02*
X0054867Y0101544D01*
X0399867Y0027292D02*
X0399867Y0020796D01*
X0409867Y0020796D02*
X0409867Y0027292D01*
X0419867Y0027292D02*
X0419867Y0020796D01*
D16*
X0631402Y0077154D03*
X0644788Y0077154D03*
X0658174Y0077154D03*
X0671560Y0077154D03*
X0684945Y0077154D03*
X0698331Y0077154D03*
X0711402Y0077154D03*
X0724788Y0077154D03*
X0738174Y0077154D03*
X0751560Y0077154D03*
X0764945Y0077154D03*
X0778331Y0077154D03*
X0771638Y0097154D03*
X0758252Y0097154D03*
X0744867Y0097154D03*
X0731481Y0097154D03*
X0718095Y0097154D03*
X0691638Y0097154D03*
X0678252Y0097154D03*
X0664867Y0097154D03*
X0651481Y0097154D03*
X0638095Y0097154D03*
D17*
X0507441Y0134044D02*
X0502292Y0134044D01*
X0502292Y0144044D02*
X0507441Y0144044D01*
X0507441Y0154044D02*
X0502292Y0154044D01*
X0502292Y0164044D02*
X0507441Y0164044D01*
X0507441Y0174044D02*
X0502292Y0174044D01*
X0502292Y0184044D02*
X0507441Y0184044D01*
X0467441Y0184044D02*
X0462292Y0184044D01*
X0462292Y0174044D02*
X0467441Y0174044D01*
X0467441Y0164044D02*
X0462292Y0164044D01*
X0462292Y0154044D02*
X0467441Y0154044D01*
X0467441Y0144044D02*
X0462292Y0144044D01*
X0462292Y0134044D02*
X0467441Y0134044D01*
D18*
X0009867Y0022044D02*
X0009867Y0016044D01*
X0019867Y0016044D02*
X0019867Y0022044D01*
X0029867Y0022044D02*
X0029867Y0016044D01*
X0039867Y0016044D02*
X0039867Y0022044D01*
X0049867Y0022044D02*
X0049867Y0016044D01*
X0059867Y0016044D02*
X0059867Y0022044D01*
X0069867Y0022044D02*
X0069867Y0016044D01*
X0079867Y0016044D02*
X0079867Y0022044D01*
X0089867Y0022044D02*
X0089867Y0016044D01*
X0099867Y0016044D02*
X0099867Y0022044D01*
X0109867Y0022044D02*
X0109867Y0016044D01*
X0119867Y0016044D02*
X0119867Y0022044D01*
X0129867Y0022044D02*
X0129867Y0016044D01*
X0139867Y0016044D02*
X0139867Y0022044D01*
X0149867Y0022044D02*
X0149867Y0016044D01*
X0159867Y0016044D02*
X0159867Y0022044D01*
X0169867Y0022044D02*
X0169867Y0016044D01*
X0179867Y0016044D02*
X0179867Y0022044D01*
X0189867Y0022044D02*
X0189867Y0016044D01*
X0199867Y0016044D02*
X0199867Y0022044D01*
X0209867Y0022044D02*
X0209867Y0016044D01*
X0219867Y0016044D02*
X0219867Y0022044D01*
X0229867Y0022044D02*
X0229867Y0016044D01*
X0239867Y0016044D02*
X0239867Y0022044D01*
X0249867Y0022044D02*
X0249867Y0016044D01*
X0259867Y0016044D02*
X0259867Y0022044D01*
X0269867Y0022044D02*
X0269867Y0016044D01*
X0279867Y0016044D02*
X0279867Y0022044D01*
X0289867Y0022044D02*
X0289867Y0016044D01*
X0299867Y0016044D02*
X0299867Y0022044D01*
X0309867Y0022044D02*
X0309867Y0016044D01*
X0319867Y0016044D02*
X0319867Y0022044D01*
X0329867Y0022044D02*
X0329867Y0016044D01*
X0339867Y0016044D02*
X0339867Y0022044D01*
X0349867Y0022044D02*
X0349867Y0016044D01*
X0359867Y0016044D02*
X0359867Y0022044D01*
X0369867Y0022044D02*
X0369867Y0016044D01*
X0379867Y0016044D02*
X0379867Y0022044D01*
X0379867Y0031044D02*
X0379867Y0037044D01*
X0369867Y0037044D02*
X0369867Y0031044D01*
X0359867Y0031044D02*
X0359867Y0037044D01*
X0349867Y0037044D02*
X0349867Y0031044D01*
X0339867Y0031044D02*
X0339867Y0037044D01*
X0329867Y0037044D02*
X0329867Y0031044D01*
X0319867Y0031044D02*
X0319867Y0037044D01*
X0309867Y0037044D02*
X0309867Y0031044D01*
X0299867Y0031044D02*
X0299867Y0037044D01*
X0289867Y0037044D02*
X0289867Y0031044D01*
X0279867Y0031044D02*
X0279867Y0037044D01*
X0269867Y0037044D02*
X0269867Y0031044D01*
X0259867Y0031044D02*
X0259867Y0037044D01*
X0249867Y0037044D02*
X0249867Y0031044D01*
X0239867Y0031044D02*
X0239867Y0037044D01*
X0229867Y0037044D02*
X0229867Y0031044D01*
X0219867Y0031044D02*
X0219867Y0037044D01*
X0209867Y0037044D02*
X0209867Y0031044D01*
X0199867Y0031044D02*
X0199867Y0037044D01*
X0189867Y0037044D02*
X0189867Y0031044D01*
X0179867Y0031044D02*
X0179867Y0037044D01*
X0169867Y0037044D02*
X0169867Y0031044D01*
X0159867Y0031044D02*
X0159867Y0037044D01*
X0149867Y0037044D02*
X0149867Y0031044D01*
X0139867Y0031044D02*
X0139867Y0037044D01*
X0129867Y0037044D02*
X0129867Y0031044D01*
X0119867Y0031044D02*
X0119867Y0037044D01*
X0109867Y0037044D02*
X0109867Y0031044D01*
X0099867Y0031044D02*
X0099867Y0037044D01*
X0089867Y0037044D02*
X0089867Y0031044D01*
X0079867Y0031044D02*
X0079867Y0037044D01*
X0069867Y0037044D02*
X0069867Y0031044D01*
X0059867Y0031044D02*
X0059867Y0037044D01*
X0049867Y0037044D02*
X0049867Y0031044D01*
X0039867Y0031044D02*
X0039867Y0037044D01*
X0029867Y0037044D02*
X0029867Y0031044D01*
X0019867Y0031044D02*
X0019867Y0037044D01*
X0009867Y0037044D02*
X0009867Y0031044D01*
X0011867Y0081544D02*
X0017867Y0081544D01*
X0017867Y0091544D02*
X0011867Y0091544D01*
X0011867Y0101544D02*
X0017867Y0101544D01*
X0017867Y0111544D02*
X0011867Y0111544D01*
X0009867Y0156044D02*
X0009867Y0162044D01*
X0019867Y0162044D02*
X0019867Y0156044D01*
X0029867Y0156044D02*
X0029867Y0162044D01*
X0039867Y0162044D02*
X0039867Y0156044D01*
X0049867Y0156044D02*
X0049867Y0162044D01*
X0059867Y0162044D02*
X0059867Y0156044D01*
X0069867Y0156044D02*
X0069867Y0162044D01*
X0079867Y0162044D02*
X0079867Y0156044D01*
X0089867Y0156044D02*
X0089867Y0162044D01*
X0099867Y0162044D02*
X0099867Y0156044D01*
X0109867Y0156044D02*
X0109867Y0162044D01*
X0119867Y0162044D02*
X0119867Y0156044D01*
X0129867Y0156044D02*
X0129867Y0162044D01*
X0139867Y0162044D02*
X0139867Y0156044D01*
X0149867Y0156044D02*
X0149867Y0162044D01*
X0159867Y0162044D02*
X0159867Y0156044D01*
X0169867Y0156044D02*
X0169867Y0162044D01*
X0179867Y0162044D02*
X0179867Y0156044D01*
X0189867Y0156044D02*
X0189867Y0162044D01*
X0199867Y0162044D02*
X0199867Y0156044D01*
X0209867Y0156044D02*
X0209867Y0162044D01*
X0219867Y0162044D02*
X0219867Y0156044D01*
X0229867Y0156044D02*
X0229867Y0162044D01*
X0239867Y0162044D02*
X0239867Y0156044D01*
X0249867Y0156044D02*
X0249867Y0162044D01*
X0259867Y0162044D02*
X0259867Y0156044D01*
X0269867Y0156044D02*
X0269867Y0162044D01*
X0279867Y0162044D02*
X0279867Y0156044D01*
X0289867Y0156044D02*
X0289867Y0162044D01*
X0299867Y0162044D02*
X0299867Y0156044D01*
X0309867Y0156044D02*
X0309867Y0162044D01*
X0319867Y0162044D02*
X0319867Y0156044D01*
X0329867Y0156044D02*
X0329867Y0162044D01*
X0339867Y0162044D02*
X0339867Y0156044D01*
X0349867Y0156044D02*
X0349867Y0162044D01*
X0359867Y0162044D02*
X0359867Y0156044D01*
X0369867Y0156044D02*
X0369867Y0162044D01*
X0379867Y0162044D02*
X0379867Y0156044D01*
X0389867Y0156044D02*
X0389867Y0162044D01*
X0399867Y0162044D02*
X0399867Y0156044D01*
X0409867Y0156044D02*
X0409867Y0162044D01*
X0419867Y0162044D02*
X0419867Y0156044D01*
X0441867Y0159044D02*
X0447867Y0159044D01*
X0447867Y0149044D02*
X0441867Y0149044D01*
X0441867Y0139044D02*
X0447867Y0139044D01*
X0447867Y0129044D02*
X0441867Y0129044D01*
X0441867Y0119044D02*
X0447867Y0119044D01*
X0407867Y0114044D02*
X0401867Y0114044D01*
X0377867Y0114044D02*
X0371867Y0114044D01*
X0347867Y0114044D02*
X0341867Y0114044D01*
X0317867Y0114044D02*
X0311867Y0114044D01*
X0311867Y0104044D02*
X0317867Y0104044D01*
X0341867Y0104044D02*
X0347867Y0104044D01*
X0371867Y0104044D02*
X0377867Y0104044D01*
X0401867Y0104044D02*
X0407867Y0104044D01*
X0407867Y0094044D02*
X0401867Y0094044D01*
X0377867Y0094044D02*
X0371867Y0094044D01*
X0347867Y0094044D02*
X0341867Y0094044D01*
X0317867Y0094044D02*
X0311867Y0094044D01*
X0311867Y0084044D02*
X0317867Y0084044D01*
X0341867Y0084044D02*
X0347867Y0084044D01*
X0371867Y0084044D02*
X0377867Y0084044D01*
X0401867Y0084044D02*
X0407867Y0084044D01*
X0409867Y0171044D02*
X0409867Y0177044D01*
X0419867Y0177044D02*
X0419867Y0171044D01*
X0399867Y0171044D02*
X0399867Y0177044D01*
X0389867Y0177044D02*
X0389867Y0171044D01*
X0379867Y0171044D02*
X0379867Y0177044D01*
X0369867Y0177044D02*
X0369867Y0171044D01*
X0359867Y0171044D02*
X0359867Y0177044D01*
X0349867Y0177044D02*
X0349867Y0171044D01*
X0339867Y0171044D02*
X0339867Y0177044D01*
X0329867Y0177044D02*
X0329867Y0171044D01*
X0319867Y0171044D02*
X0319867Y0177044D01*
X0309867Y0177044D02*
X0309867Y0171044D01*
X0299867Y0171044D02*
X0299867Y0177044D01*
X0289867Y0177044D02*
X0289867Y0171044D01*
X0279867Y0171044D02*
X0279867Y0177044D01*
X0269867Y0177044D02*
X0269867Y0171044D01*
X0259867Y0171044D02*
X0259867Y0177044D01*
X0249867Y0177044D02*
X0249867Y0171044D01*
X0239867Y0171044D02*
X0239867Y0177044D01*
X0229867Y0177044D02*
X0229867Y0171044D01*
X0219867Y0171044D02*
X0219867Y0177044D01*
X0209867Y0177044D02*
X0209867Y0171044D01*
X0199867Y0171044D02*
X0199867Y0177044D01*
X0189867Y0177044D02*
X0189867Y0171044D01*
X0179867Y0171044D02*
X0179867Y0177044D01*
X0169867Y0177044D02*
X0169867Y0171044D01*
X0159867Y0171044D02*
X0159867Y0177044D01*
X0149867Y0177044D02*
X0149867Y0171044D01*
X0139867Y0171044D02*
X0139867Y0177044D01*
X0129867Y0177044D02*
X0129867Y0171044D01*
X0119867Y0171044D02*
X0119867Y0177044D01*
X0109867Y0177044D02*
X0109867Y0171044D01*
X0099867Y0171044D02*
X0099867Y0177044D01*
X0089867Y0177044D02*
X0089867Y0171044D01*
X0079867Y0171044D02*
X0079867Y0177044D01*
X0069867Y0177044D02*
X0069867Y0171044D01*
X0059867Y0171044D02*
X0059867Y0177044D01*
X0049867Y0177044D02*
X0049867Y0171044D01*
X0039867Y0171044D02*
X0039867Y0177044D01*
X0029867Y0177044D02*
X0029867Y0171044D01*
X0019867Y0171044D02*
X0019867Y0177044D01*
X0009867Y0177044D02*
X0009867Y0171044D01*
D19*
X0529867Y0176076D02*
X0529867Y0182013D01*
X0539867Y0182013D02*
X0539867Y0176076D01*
X0549867Y0176076D02*
X0549867Y0182013D01*
D20*
X0519867Y0039044D03*
X0439867Y0039044D03*
D21*
X0439867Y0049044D03*
X0439867Y0059044D03*
X0439867Y0069044D03*
X0439867Y0079044D03*
X0439867Y0089044D03*
X0519867Y0089044D03*
X0519867Y0079044D03*
X0519867Y0069044D03*
X0519867Y0059044D03*
X0519867Y0049044D03*
D22*
X0529867Y0121544D03*
X0554867Y0154044D03*
D23*
X0544867Y0154044D03*
X0539867Y0121544D03*
D24*
X0640067Y0150144D02*
X0640067Y0157944D01*
X0659767Y0157944D02*
X0659767Y0150144D01*
X0720067Y0150144D02*
X0720067Y0157944D01*
X0739767Y0157944D02*
X0739767Y0150144D01*
X0760067Y0150144D02*
X0760067Y0157944D01*
X0779767Y0157944D02*
X0779767Y0150144D01*
D25*
X0534867Y0089044D03*
D26*
X0634867Y0069044D03*
X0644867Y0069044D03*
X0714867Y0069044D03*
X0724867Y0069044D03*
X0724867Y0039044D03*
X0714867Y0039044D03*
X0644867Y0039044D03*
X0634867Y0039044D03*
X0427367Y0041544D03*
X0419867Y0056544D03*
X0389867Y0056544D03*
X0427367Y0071544D03*
X0629867Y0119044D03*
X0649867Y0119044D03*
X0679867Y0119044D03*
X0699867Y0119044D03*
X0709867Y0119044D03*
X0729867Y0119044D03*
X0759867Y0119044D03*
X0779867Y0119044D03*
D27*
X0599867Y0074044D03*
X0587367Y0071544D03*
X0554867Y0068544D03*
X0542367Y0073544D03*
X0589867Y0049044D03*
X0609867Y0049044D03*
X0664867Y0049044D03*
X0694867Y0049044D03*
X0744867Y0049044D03*
X0774867Y0049044D03*
X0579867Y0134044D03*
X0564867Y0134044D03*
D28*
X0554867Y0134044D03*
X0589867Y0134044D03*
X0609867Y0074044D03*
X0577367Y0071544D03*
X0564867Y0068544D03*
X0532367Y0073544D03*
X0579867Y0049044D03*
X0619867Y0049044D03*
X0664867Y0059044D03*
X0694867Y0059044D03*
X0744867Y0059044D03*
X0774867Y0059044D03*
D29*
X0609867Y0089619D02*
X0609867Y0098469D01*
X0609867Y0149619D02*
X0609867Y0158469D01*
D30*
X0589867Y0159044D03*
X0589867Y0169044D03*
X0589867Y0179044D03*
X0579867Y0109044D03*
X0569867Y0109044D03*
X0559867Y0109044D03*
X0559867Y0044044D03*
X0559867Y0034044D03*
X0589867Y0029044D03*
X0599867Y0029044D03*
X0609867Y0029044D03*
X0559867Y0024044D03*
D31*
X0522367Y0142670D03*
X0522367Y0150544D03*
X0522367Y0158418D03*
D32*
X0434867Y0104044D03*
X0434867Y0099044D03*
X0448867Y0083844D03*
X0374867Y0064044D03*
X0364867Y0060644D03*
X0284867Y0059044D03*
X0269667Y0077444D03*
X0284867Y0086244D03*
X0287067Y0096844D03*
X0287067Y0100844D03*
X0287067Y0104844D03*
X0287067Y0108844D03*
X0255267Y0095844D03*
X0189867Y0086244D03*
X0179867Y0094044D03*
X0179867Y0114044D03*
X0184867Y0114044D03*
X0174867Y0114044D03*
X0239867Y0119044D03*
X0449867Y0014044D03*
X0454867Y0014044D03*
X0459867Y0014044D03*
X0464867Y0014044D03*
X0469867Y0014044D03*
X0479867Y0014044D03*
M02*
