G75*
%MOIN*%
%OFA0B0*%
%FSLAX25Y25*%
%IPPOS*%
%LPD*%
%AMOC8*
5,1,8,0,0,1.08239X$1,22.5*
%
%ADD10C,0.05800*%
%ADD11C,0.06496*%
%ADD12C,0.06496*%
%ADD13C,0.07000*%
%ADD14C,0.05150*%
%ADD15C,0.06000*%
%ADD16C,0.05937*%
%ADD17R,0.05543X0.05543*%
%ADD18C,0.05543*%
%ADD19OC8,0.06200*%
%ADD20C,0.06200*%
%ADD21C,0.07800*%
%ADD22OC8,0.06000*%
%ADD23OC8,0.05200*%
%ADD24OC8,0.06300*%
%ADD25C,0.06300*%
%ADD26C,0.08850*%
%ADD27C,0.06600*%
%ADD28C,0.05150*%
%ADD29C,0.00800*%
%ADD30C,0.05000*%
%ADD31C,0.02978*%
%ADD32C,0.04000*%
D10*
X0049867Y0066544D03*
X0059867Y0066544D03*
X0069867Y0066544D03*
X0079867Y0066544D03*
X0089867Y0066544D03*
X0099867Y0066544D03*
X0109867Y0066544D03*
X0119867Y0066544D03*
X0129867Y0066544D03*
X0139867Y0066544D03*
X0149867Y0066544D03*
X0159867Y0066544D03*
X0169867Y0066544D03*
X0179867Y0066544D03*
X0189867Y0066544D03*
X0199867Y0066544D03*
X0209867Y0066544D03*
X0219867Y0066544D03*
X0229867Y0066544D03*
X0239867Y0066544D03*
X0249867Y0066544D03*
X0259867Y0066544D03*
X0269867Y0066544D03*
X0279867Y0066544D03*
X0229867Y0076544D03*
X0229867Y0086544D03*
X0229867Y0096544D03*
X0229867Y0106544D03*
X0229867Y0116544D03*
X0229867Y0126544D03*
X0219867Y0126544D03*
X0209867Y0126544D03*
X0199867Y0126544D03*
X0189867Y0126544D03*
X0179867Y0126544D03*
X0169867Y0126544D03*
X0159867Y0126544D03*
X0149867Y0126544D03*
X0139867Y0126544D03*
X0129867Y0126544D03*
X0119867Y0126544D03*
X0109867Y0126544D03*
X0099867Y0126544D03*
X0089867Y0126544D03*
X0079867Y0126544D03*
X0069867Y0126544D03*
X0059867Y0126544D03*
X0049867Y0126544D03*
X0059867Y0116544D03*
X0079867Y0116544D03*
X0089867Y0116544D03*
X0099867Y0116544D03*
X0104867Y0079044D03*
X0114867Y0079044D03*
X0094867Y0079044D03*
X0084867Y0079044D03*
X0074867Y0079044D03*
X0239867Y0126544D03*
X0249867Y0126544D03*
X0259867Y0126544D03*
X0269867Y0126544D03*
X0279867Y0126544D03*
D11*
X0279867Y0111544D03*
X0269867Y0111544D03*
X0259867Y0111544D03*
X0249867Y0111544D03*
X0239867Y0111544D03*
X0219867Y0111544D03*
X0209867Y0111544D03*
X0199867Y0111544D03*
X0139867Y0111544D03*
X0129867Y0111544D03*
X0119867Y0111544D03*
X0109867Y0111544D03*
X0109867Y0091544D03*
X0119867Y0091544D03*
X0129867Y0091544D03*
X0139867Y0091544D03*
X0199867Y0091544D03*
X0209867Y0091544D03*
X0219867Y0091544D03*
X0239867Y0091544D03*
X0249867Y0091544D03*
X0259867Y0091544D03*
X0269867Y0091544D03*
X0279867Y0091544D03*
D12*
X0054867Y0091544D02*
X0048371Y0091544D01*
X0048371Y0101544D02*
X0054867Y0101544D01*
X0399867Y0027292D02*
X0399867Y0020796D01*
X0409867Y0020796D02*
X0409867Y0027292D01*
X0419867Y0027292D02*
X0419867Y0020796D01*
D13*
X0631402Y0077154D03*
X0644788Y0077154D03*
X0658174Y0077154D03*
X0671560Y0077154D03*
X0684945Y0077154D03*
X0698331Y0077154D03*
X0711402Y0077154D03*
X0724788Y0077154D03*
X0738174Y0077154D03*
X0751560Y0077154D03*
X0764945Y0077154D03*
X0778331Y0077154D03*
X0771638Y0097154D03*
X0758252Y0097154D03*
X0744867Y0097154D03*
X0731481Y0097154D03*
X0718095Y0097154D03*
X0691638Y0097154D03*
X0678252Y0097154D03*
X0664867Y0097154D03*
X0651481Y0097154D03*
X0638095Y0097154D03*
D14*
X0507441Y0134044D02*
X0502292Y0134044D01*
X0502292Y0144044D02*
X0507441Y0144044D01*
X0507441Y0154044D02*
X0502292Y0154044D01*
X0502292Y0164044D02*
X0507441Y0164044D01*
X0507441Y0174044D02*
X0502292Y0174044D01*
X0502292Y0184044D02*
X0507441Y0184044D01*
X0467441Y0184044D02*
X0462292Y0184044D01*
X0462292Y0174044D02*
X0467441Y0174044D01*
X0467441Y0164044D02*
X0462292Y0164044D01*
X0462292Y0154044D02*
X0467441Y0154044D01*
X0467441Y0144044D02*
X0462292Y0144044D01*
X0462292Y0134044D02*
X0467441Y0134044D01*
D15*
X0009867Y0022044D02*
X0009867Y0016044D01*
X0019867Y0016044D02*
X0019867Y0022044D01*
X0029867Y0022044D02*
X0029867Y0016044D01*
X0039867Y0016044D02*
X0039867Y0022044D01*
X0049867Y0022044D02*
X0049867Y0016044D01*
X0059867Y0016044D02*
X0059867Y0022044D01*
X0069867Y0022044D02*
X0069867Y0016044D01*
X0079867Y0016044D02*
X0079867Y0022044D01*
X0089867Y0022044D02*
X0089867Y0016044D01*
X0099867Y0016044D02*
X0099867Y0022044D01*
X0109867Y0022044D02*
X0109867Y0016044D01*
X0119867Y0016044D02*
X0119867Y0022044D01*
X0129867Y0022044D02*
X0129867Y0016044D01*
X0139867Y0016044D02*
X0139867Y0022044D01*
X0149867Y0022044D02*
X0149867Y0016044D01*
X0159867Y0016044D02*
X0159867Y0022044D01*
X0169867Y0022044D02*
X0169867Y0016044D01*
X0179867Y0016044D02*
X0179867Y0022044D01*
X0189867Y0022044D02*
X0189867Y0016044D01*
X0199867Y0016044D02*
X0199867Y0022044D01*
X0209867Y0022044D02*
X0209867Y0016044D01*
X0219867Y0016044D02*
X0219867Y0022044D01*
X0229867Y0022044D02*
X0229867Y0016044D01*
X0239867Y0016044D02*
X0239867Y0022044D01*
X0249867Y0022044D02*
X0249867Y0016044D01*
X0259867Y0016044D02*
X0259867Y0022044D01*
X0269867Y0022044D02*
X0269867Y0016044D01*
X0279867Y0016044D02*
X0279867Y0022044D01*
X0289867Y0022044D02*
X0289867Y0016044D01*
X0299867Y0016044D02*
X0299867Y0022044D01*
X0309867Y0022044D02*
X0309867Y0016044D01*
X0319867Y0016044D02*
X0319867Y0022044D01*
X0329867Y0022044D02*
X0329867Y0016044D01*
X0339867Y0016044D02*
X0339867Y0022044D01*
X0349867Y0022044D02*
X0349867Y0016044D01*
X0359867Y0016044D02*
X0359867Y0022044D01*
X0369867Y0022044D02*
X0369867Y0016044D01*
X0379867Y0016044D02*
X0379867Y0022044D01*
X0379867Y0031044D02*
X0379867Y0037044D01*
X0369867Y0037044D02*
X0369867Y0031044D01*
X0359867Y0031044D02*
X0359867Y0037044D01*
X0349867Y0037044D02*
X0349867Y0031044D01*
X0339867Y0031044D02*
X0339867Y0037044D01*
X0329867Y0037044D02*
X0329867Y0031044D01*
X0319867Y0031044D02*
X0319867Y0037044D01*
X0309867Y0037044D02*
X0309867Y0031044D01*
X0299867Y0031044D02*
X0299867Y0037044D01*
X0289867Y0037044D02*
X0289867Y0031044D01*
X0279867Y0031044D02*
X0279867Y0037044D01*
X0269867Y0037044D02*
X0269867Y0031044D01*
X0259867Y0031044D02*
X0259867Y0037044D01*
X0249867Y0037044D02*
X0249867Y0031044D01*
X0239867Y0031044D02*
X0239867Y0037044D01*
X0229867Y0037044D02*
X0229867Y0031044D01*
X0219867Y0031044D02*
X0219867Y0037044D01*
X0209867Y0037044D02*
X0209867Y0031044D01*
X0199867Y0031044D02*
X0199867Y0037044D01*
X0189867Y0037044D02*
X0189867Y0031044D01*
X0179867Y0031044D02*
X0179867Y0037044D01*
X0169867Y0037044D02*
X0169867Y0031044D01*
X0159867Y0031044D02*
X0159867Y0037044D01*
X0149867Y0037044D02*
X0149867Y0031044D01*
X0139867Y0031044D02*
X0139867Y0037044D01*
X0129867Y0037044D02*
X0129867Y0031044D01*
X0119867Y0031044D02*
X0119867Y0037044D01*
X0109867Y0037044D02*
X0109867Y0031044D01*
X0099867Y0031044D02*
X0099867Y0037044D01*
X0089867Y0037044D02*
X0089867Y0031044D01*
X0079867Y0031044D02*
X0079867Y0037044D01*
X0069867Y0037044D02*
X0069867Y0031044D01*
X0059867Y0031044D02*
X0059867Y0037044D01*
X0049867Y0037044D02*
X0049867Y0031044D01*
X0039867Y0031044D02*
X0039867Y0037044D01*
X0029867Y0037044D02*
X0029867Y0031044D01*
X0019867Y0031044D02*
X0019867Y0037044D01*
X0009867Y0037044D02*
X0009867Y0031044D01*
X0011867Y0081544D02*
X0017867Y0081544D01*
X0017867Y0091544D02*
X0011867Y0091544D01*
X0011867Y0101544D02*
X0017867Y0101544D01*
X0017867Y0111544D02*
X0011867Y0111544D01*
X0009867Y0156044D02*
X0009867Y0162044D01*
X0019867Y0162044D02*
X0019867Y0156044D01*
X0029867Y0156044D02*
X0029867Y0162044D01*
X0039867Y0162044D02*
X0039867Y0156044D01*
X0049867Y0156044D02*
X0049867Y0162044D01*
X0059867Y0162044D02*
X0059867Y0156044D01*
X0069867Y0156044D02*
X0069867Y0162044D01*
X0079867Y0162044D02*
X0079867Y0156044D01*
X0089867Y0156044D02*
X0089867Y0162044D01*
X0099867Y0162044D02*
X0099867Y0156044D01*
X0109867Y0156044D02*
X0109867Y0162044D01*
X0119867Y0162044D02*
X0119867Y0156044D01*
X0129867Y0156044D02*
X0129867Y0162044D01*
X0139867Y0162044D02*
X0139867Y0156044D01*
X0149867Y0156044D02*
X0149867Y0162044D01*
X0159867Y0162044D02*
X0159867Y0156044D01*
X0169867Y0156044D02*
X0169867Y0162044D01*
X0179867Y0162044D02*
X0179867Y0156044D01*
X0189867Y0156044D02*
X0189867Y0162044D01*
X0199867Y0162044D02*
X0199867Y0156044D01*
X0209867Y0156044D02*
X0209867Y0162044D01*
X0219867Y0162044D02*
X0219867Y0156044D01*
X0229867Y0156044D02*
X0229867Y0162044D01*
X0239867Y0162044D02*
X0239867Y0156044D01*
X0249867Y0156044D02*
X0249867Y0162044D01*
X0259867Y0162044D02*
X0259867Y0156044D01*
X0269867Y0156044D02*
X0269867Y0162044D01*
X0279867Y0162044D02*
X0279867Y0156044D01*
X0289867Y0156044D02*
X0289867Y0162044D01*
X0299867Y0162044D02*
X0299867Y0156044D01*
X0309867Y0156044D02*
X0309867Y0162044D01*
X0319867Y0162044D02*
X0319867Y0156044D01*
X0329867Y0156044D02*
X0329867Y0162044D01*
X0339867Y0162044D02*
X0339867Y0156044D01*
X0349867Y0156044D02*
X0349867Y0162044D01*
X0359867Y0162044D02*
X0359867Y0156044D01*
X0369867Y0156044D02*
X0369867Y0162044D01*
X0379867Y0162044D02*
X0379867Y0156044D01*
X0389867Y0156044D02*
X0389867Y0162044D01*
X0399867Y0162044D02*
X0399867Y0156044D01*
X0409867Y0156044D02*
X0409867Y0162044D01*
X0419867Y0162044D02*
X0419867Y0156044D01*
X0441867Y0159044D02*
X0447867Y0159044D01*
X0447867Y0149044D02*
X0441867Y0149044D01*
X0441867Y0139044D02*
X0447867Y0139044D01*
X0447867Y0129044D02*
X0441867Y0129044D01*
X0441867Y0119044D02*
X0447867Y0119044D01*
X0407867Y0114044D02*
X0401867Y0114044D01*
X0377867Y0114044D02*
X0371867Y0114044D01*
X0347867Y0114044D02*
X0341867Y0114044D01*
X0317867Y0114044D02*
X0311867Y0114044D01*
X0311867Y0104044D02*
X0317867Y0104044D01*
X0341867Y0104044D02*
X0347867Y0104044D01*
X0371867Y0104044D02*
X0377867Y0104044D01*
X0401867Y0104044D02*
X0407867Y0104044D01*
X0407867Y0094044D02*
X0401867Y0094044D01*
X0377867Y0094044D02*
X0371867Y0094044D01*
X0347867Y0094044D02*
X0341867Y0094044D01*
X0317867Y0094044D02*
X0311867Y0094044D01*
X0311867Y0084044D02*
X0317867Y0084044D01*
X0341867Y0084044D02*
X0347867Y0084044D01*
X0371867Y0084044D02*
X0377867Y0084044D01*
X0401867Y0084044D02*
X0407867Y0084044D01*
X0409867Y0171044D02*
X0409867Y0177044D01*
X0419867Y0177044D02*
X0419867Y0171044D01*
X0399867Y0171044D02*
X0399867Y0177044D01*
X0389867Y0177044D02*
X0389867Y0171044D01*
X0379867Y0171044D02*
X0379867Y0177044D01*
X0369867Y0177044D02*
X0369867Y0171044D01*
X0359867Y0171044D02*
X0359867Y0177044D01*
X0349867Y0177044D02*
X0349867Y0171044D01*
X0339867Y0171044D02*
X0339867Y0177044D01*
X0329867Y0177044D02*
X0329867Y0171044D01*
X0319867Y0171044D02*
X0319867Y0177044D01*
X0309867Y0177044D02*
X0309867Y0171044D01*
X0299867Y0171044D02*
X0299867Y0177044D01*
X0289867Y0177044D02*
X0289867Y0171044D01*
X0279867Y0171044D02*
X0279867Y0177044D01*
X0269867Y0177044D02*
X0269867Y0171044D01*
X0259867Y0171044D02*
X0259867Y0177044D01*
X0249867Y0177044D02*
X0249867Y0171044D01*
X0239867Y0171044D02*
X0239867Y0177044D01*
X0229867Y0177044D02*
X0229867Y0171044D01*
X0219867Y0171044D02*
X0219867Y0177044D01*
X0209867Y0177044D02*
X0209867Y0171044D01*
X0199867Y0171044D02*
X0199867Y0177044D01*
X0189867Y0177044D02*
X0189867Y0171044D01*
X0179867Y0171044D02*
X0179867Y0177044D01*
X0169867Y0177044D02*
X0169867Y0171044D01*
X0159867Y0171044D02*
X0159867Y0177044D01*
X0149867Y0177044D02*
X0149867Y0171044D01*
X0139867Y0171044D02*
X0139867Y0177044D01*
X0129867Y0177044D02*
X0129867Y0171044D01*
X0119867Y0171044D02*
X0119867Y0177044D01*
X0109867Y0177044D02*
X0109867Y0171044D01*
X0099867Y0171044D02*
X0099867Y0177044D01*
X0089867Y0177044D02*
X0089867Y0171044D01*
X0079867Y0171044D02*
X0079867Y0177044D01*
X0069867Y0177044D02*
X0069867Y0171044D01*
X0059867Y0171044D02*
X0059867Y0177044D01*
X0049867Y0177044D02*
X0049867Y0171044D01*
X0039867Y0171044D02*
X0039867Y0177044D01*
X0029867Y0177044D02*
X0029867Y0171044D01*
X0019867Y0171044D02*
X0019867Y0177044D01*
X0009867Y0177044D02*
X0009867Y0171044D01*
D16*
X0529867Y0176076D02*
X0529867Y0182013D01*
X0539867Y0182013D02*
X0539867Y0176076D01*
X0549867Y0176076D02*
X0549867Y0182013D01*
D17*
X0519867Y0039044D03*
X0439867Y0039044D03*
D18*
X0439867Y0049044D03*
X0439867Y0059044D03*
X0439867Y0069044D03*
X0439867Y0079044D03*
X0439867Y0089044D03*
X0519867Y0089044D03*
X0519867Y0079044D03*
X0519867Y0069044D03*
X0519867Y0059044D03*
X0519867Y0049044D03*
D19*
X0529867Y0121544D03*
X0554867Y0154044D03*
D20*
X0544867Y0154044D03*
X0539867Y0121544D03*
D21*
X0640067Y0150144D02*
X0640067Y0157944D01*
X0659767Y0157944D02*
X0659767Y0150144D01*
X0720067Y0150144D02*
X0720067Y0157944D01*
X0739767Y0157944D02*
X0739767Y0150144D01*
X0760067Y0150144D02*
X0760067Y0157944D01*
X0779767Y0157944D02*
X0779767Y0150144D01*
D22*
X0534867Y0089044D03*
D23*
X0634867Y0069044D03*
X0644867Y0069044D03*
X0714867Y0069044D03*
X0724867Y0069044D03*
X0724867Y0039044D03*
X0714867Y0039044D03*
X0644867Y0039044D03*
X0634867Y0039044D03*
X0427367Y0041544D03*
X0419867Y0056544D03*
X0389867Y0056544D03*
X0427367Y0071544D03*
X0629867Y0119044D03*
X0649867Y0119044D03*
X0679867Y0119044D03*
X0699867Y0119044D03*
X0709867Y0119044D03*
X0729867Y0119044D03*
X0759867Y0119044D03*
X0779867Y0119044D03*
D24*
X0599867Y0074044D03*
X0587367Y0071544D03*
X0554867Y0068544D03*
X0542367Y0073544D03*
X0589867Y0049044D03*
X0609867Y0049044D03*
X0664867Y0049044D03*
X0694867Y0049044D03*
X0744867Y0049044D03*
X0774867Y0049044D03*
X0579867Y0134044D03*
X0564867Y0134044D03*
D25*
X0554867Y0134044D03*
X0589867Y0134044D03*
X0609867Y0074044D03*
X0577367Y0071544D03*
X0564867Y0068544D03*
X0532367Y0073544D03*
X0579867Y0049044D03*
X0619867Y0049044D03*
X0664867Y0059044D03*
X0694867Y0059044D03*
X0744867Y0059044D03*
X0774867Y0059044D03*
D26*
X0609867Y0089619D02*
X0609867Y0098469D01*
X0609867Y0149619D02*
X0609867Y0158469D01*
D27*
X0589867Y0159044D03*
X0589867Y0169044D03*
X0589867Y0179044D03*
X0579867Y0109044D03*
X0569867Y0109044D03*
X0559867Y0109044D03*
X0559867Y0044044D03*
X0559867Y0034044D03*
X0589867Y0029044D03*
X0599867Y0029044D03*
X0609867Y0029044D03*
X0559867Y0024044D03*
D28*
X0522367Y0142670D03*
X0522367Y0150544D03*
X0522367Y0158418D03*
D29*
X0524867Y0164044D02*
X0534867Y0154044D01*
X0534867Y0144044D01*
X0559867Y0119044D01*
X0559867Y0109044D01*
X0534867Y0089044D02*
X0519867Y0089044D01*
X0476467Y0093381D02*
X0476467Y0162444D01*
X0464867Y0174044D01*
X0464867Y0184044D02*
X0479867Y0169044D01*
X0479867Y0014044D01*
X0469867Y0014044D02*
X0469606Y0014044D01*
X0460806Y0005244D01*
X0084727Y0005244D01*
X0070927Y0019044D01*
X0069867Y0019044D01*
X0069867Y0034044D01*
X0069867Y0066544D01*
X0059867Y0066544D02*
X0059867Y0034044D01*
X0059867Y0019044D01*
X0060927Y0019044D01*
X0076327Y0003644D01*
X0473667Y0003644D01*
X0474867Y0004844D01*
X0474867Y0091781D01*
X0476467Y0093381D01*
X0474867Y0094044D02*
X0439867Y0059044D01*
X0439867Y0049044D01*
X0434867Y0049044D01*
X0427367Y0041544D01*
X0430241Y0039044D02*
X0439867Y0039044D01*
X0430241Y0039044D02*
X0428941Y0037744D01*
X0408667Y0037744D01*
X0389867Y0056544D01*
X0389867Y0079044D01*
X0404867Y0094044D01*
X0429667Y0100441D02*
X0439867Y0090241D01*
X0439867Y0089044D01*
X0453267Y0094044D02*
X0436067Y0111244D01*
X0436067Y0181244D01*
X0429567Y0187744D01*
X0171967Y0187744D01*
X0169867Y0185644D01*
X0169867Y0174044D01*
X0169867Y0159044D01*
X0169867Y0126544D01*
X0179867Y0126544D02*
X0179867Y0159044D01*
X0179867Y0174044D01*
X0179867Y0185644D01*
X0180367Y0186144D01*
X0428567Y0186144D01*
X0434467Y0180244D01*
X0434467Y0110581D01*
X0448867Y0096181D01*
X0448867Y0083844D01*
X0453267Y0082444D02*
X0449867Y0079044D01*
X0439867Y0079044D01*
X0434867Y0079044D01*
X0427367Y0071544D01*
X0432367Y0069044D02*
X0439867Y0069044D01*
X0444867Y0069044D01*
X0454867Y0079044D01*
X0454867Y0100104D01*
X0437667Y0117304D01*
X0437667Y0182244D01*
X0430567Y0189344D01*
X0163567Y0189344D01*
X0159867Y0185644D01*
X0159867Y0174044D01*
X0159867Y0159044D01*
X0159867Y0126544D01*
X0149867Y0126544D02*
X0149867Y0159044D01*
X0149867Y0174044D01*
X0139867Y0174044D02*
X0139867Y0190644D01*
X0140167Y0190944D01*
X0447092Y0190944D01*
X0454867Y0183169D01*
X0454867Y0149044D01*
X0444867Y0139044D01*
X0444867Y0129044D02*
X0456917Y0141094D01*
X0456917Y0183381D01*
X0447754Y0192544D01*
X0131767Y0192544D01*
X0129867Y0190644D01*
X0129867Y0174044D01*
X0129867Y0159044D01*
X0129867Y0126544D01*
X0139867Y0126544D02*
X0139867Y0159044D01*
X0139867Y0174044D01*
X0119867Y0174044D02*
X0119867Y0190644D01*
X0123367Y0194144D01*
X0448417Y0194144D01*
X0458517Y0184044D01*
X0458517Y0132694D01*
X0444867Y0119044D01*
X0432867Y0106044D02*
X0434867Y0104044D01*
X0432867Y0106044D02*
X0432867Y0179044D01*
X0427467Y0184444D01*
X0190267Y0184444D01*
X0184867Y0179044D01*
X0184867Y0124044D01*
X0174867Y0114044D01*
X0179867Y0114044D02*
X0181064Y0114044D01*
X0183753Y0116733D01*
X0187556Y0116733D01*
X0194867Y0124044D01*
X0194867Y0179044D01*
X0198667Y0182844D01*
X0426667Y0182844D01*
X0431267Y0178244D01*
X0431267Y0102644D01*
X0434867Y0099044D01*
X0429667Y0100441D02*
X0429667Y0177581D01*
X0426004Y0181244D01*
X0207067Y0181244D01*
X0204867Y0179044D01*
X0204867Y0124044D01*
X0194867Y0114044D01*
X0184867Y0114044D01*
X0161815Y0107096D02*
X0224620Y0107096D01*
X0228168Y0110644D01*
X0234476Y0110644D01*
X0238024Y0107096D01*
X0239867Y0107096D01*
X0242919Y0104044D01*
X0270867Y0104044D01*
X0273919Y0107096D01*
X0281709Y0107096D01*
X0283457Y0108844D01*
X0287067Y0108844D01*
X0287067Y0104844D02*
X0278669Y0104844D01*
X0276269Y0102444D01*
X0228168Y0102444D01*
X0225168Y0105444D01*
X0119676Y0105444D01*
X0115419Y0109702D01*
X0115419Y0112283D01*
X0111709Y0115992D01*
X0110419Y0115992D01*
X0099867Y0126544D01*
X0099867Y0159044D01*
X0099867Y0174044D01*
X0109867Y0174044D02*
X0109867Y0159044D01*
X0109867Y0126544D01*
X0117367Y0119044D01*
X0149867Y0119044D01*
X0161815Y0107096D01*
X0184867Y0102244D02*
X0188067Y0099044D01*
X0221568Y0099044D01*
X0228168Y0092444D01*
X0231565Y0092444D01*
X0238165Y0099044D01*
X0284867Y0099044D01*
X0287067Y0096844D01*
X0287069Y0100644D02*
X0287067Y0100647D01*
X0287067Y0100844D01*
X0287069Y0100644D02*
X0255467Y0100644D01*
X0255267Y0100844D01*
X0227506Y0100844D01*
X0224506Y0103844D01*
X0119013Y0103844D01*
X0118813Y0104044D01*
X0104867Y0104044D01*
X0093967Y0114944D01*
X0093967Y0118242D01*
X0089867Y0122342D01*
X0089867Y0126544D01*
X0089867Y0159044D01*
X0089867Y0174044D01*
X0079867Y0174044D02*
X0079867Y0159044D01*
X0079867Y0126544D01*
X0085767Y0120644D01*
X0085767Y0114846D01*
X0098368Y0102244D01*
X0184867Y0102244D01*
X0184867Y0099044D02*
X0074867Y0099044D01*
X0069867Y0104044D01*
X0069867Y0126544D01*
X0069867Y0159044D01*
X0069867Y0174044D01*
X0059867Y0174044D02*
X0059867Y0159044D01*
X0059867Y0126544D01*
X0049867Y0126544D02*
X0049867Y0159044D01*
X0049867Y0174044D01*
X0039867Y0174044D02*
X0039867Y0159044D01*
X0029867Y0159044D02*
X0029867Y0174044D01*
X0019867Y0174044D02*
X0019867Y0159044D01*
X0009867Y0159044D02*
X0009867Y0124044D01*
X0010127Y0123784D01*
X0017367Y0116544D01*
X0059867Y0116544D01*
X0056709Y0105992D02*
X0020419Y0105992D01*
X0014867Y0111544D01*
X0010927Y0106544D02*
X0007667Y0109804D01*
X0007667Y0121324D01*
X0010127Y0123784D01*
X0010927Y0106544D02*
X0007667Y0103284D01*
X0007667Y0099804D01*
X0010927Y0096544D01*
X0007667Y0093284D01*
X0007667Y0089804D01*
X0014867Y0082604D01*
X0014867Y0081544D01*
X0013167Y0077344D02*
X0023167Y0077344D01*
X0024867Y0079044D01*
X0074867Y0079044D01*
X0073168Y0074944D02*
X0070668Y0077444D01*
X0025529Y0077444D01*
X0023829Y0075744D01*
X0013829Y0075744D01*
X0011467Y0073381D01*
X0011467Y0042444D01*
X0019867Y0034044D01*
X0019867Y0019044D01*
X0029867Y0019044D02*
X0029867Y0034044D01*
X0045667Y0049844D01*
X0045667Y0068142D01*
X0049768Y0072244D01*
X0088067Y0072244D01*
X0094867Y0079044D01*
X0084867Y0079044D02*
X0080767Y0074944D01*
X0073168Y0074944D01*
X0058168Y0070644D02*
X0096467Y0070644D01*
X0104867Y0079044D01*
X0109867Y0079044D01*
X0109867Y0091544D01*
X0113576Y0091544D01*
X0118024Y0095992D01*
X0141709Y0095992D01*
X0143657Y0094044D01*
X0179867Y0094044D01*
X0184867Y0099044D02*
X0189867Y0094044D01*
X0189867Y0086244D01*
X0229567Y0086244D01*
X0229867Y0086544D01*
X0284567Y0086544D01*
X0284867Y0086244D01*
X0286469Y0084044D02*
X0284869Y0082444D01*
X0189864Y0082444D01*
X0188264Y0084044D01*
X0124867Y0084044D01*
X0119867Y0079044D01*
X0119867Y0066544D01*
X0119867Y0034044D01*
X0119867Y0019044D01*
X0129867Y0019044D02*
X0129867Y0034044D01*
X0129867Y0066544D01*
X0144167Y0080844D01*
X0309127Y0080844D01*
X0310127Y0079844D01*
X0319606Y0079844D01*
X0322067Y0082304D01*
X0322067Y0095784D01*
X0314867Y0102984D01*
X0314867Y0104044D01*
X0344867Y0104044D02*
X0344867Y0102984D01*
X0352067Y0095784D01*
X0352067Y0082304D01*
X0346406Y0076644D01*
X0304729Y0076644D01*
X0298929Y0070844D01*
X0155686Y0070844D01*
X0151386Y0066544D01*
X0149867Y0066544D01*
X0149867Y0034044D01*
X0149867Y0019044D01*
X0139867Y0019044D02*
X0139867Y0034044D01*
X0139867Y0066544D01*
X0145767Y0072444D01*
X0231565Y0072444D01*
X0233165Y0074044D01*
X0299867Y0074044D01*
X0304067Y0078244D01*
X0320269Y0078244D01*
X0326069Y0084044D01*
X0344867Y0084044D01*
X0374867Y0084044D02*
X0374867Y0064044D01*
X0364867Y0060644D02*
X0364867Y0094044D01*
X0374867Y0104044D01*
X0314867Y0094044D02*
X0312367Y0091544D01*
X0279867Y0091544D01*
X0276157Y0091544D01*
X0271709Y0095992D01*
X0255919Y0095992D01*
X0255267Y0095844D01*
X0286469Y0084044D02*
X0314867Y0084044D01*
X0269667Y0077444D02*
X0268767Y0076544D01*
X0229867Y0076544D01*
X0229867Y0066544D02*
X0229867Y0034044D01*
X0229867Y0019044D01*
X0219867Y0019044D02*
X0219867Y0034044D01*
X0219867Y0066544D01*
X0209867Y0066544D02*
X0209867Y0034044D01*
X0209867Y0019044D01*
X0199867Y0019044D02*
X0199867Y0034044D01*
X0199867Y0066544D01*
X0189867Y0066544D02*
X0189867Y0034044D01*
X0189867Y0019044D01*
X0179867Y0019044D02*
X0179867Y0034044D01*
X0179867Y0066544D01*
X0169867Y0066544D02*
X0169867Y0034044D01*
X0169867Y0019044D01*
X0159867Y0019044D02*
X0159867Y0034044D01*
X0159867Y0066544D01*
X0114867Y0079044D02*
X0109867Y0079044D01*
X0109867Y0091544D02*
X0071157Y0091544D01*
X0056709Y0105992D01*
X0054867Y0101544D02*
X0014867Y0101544D01*
X0014867Y0091544D02*
X0054867Y0091544D01*
X0013167Y0077344D02*
X0009867Y0074044D01*
X0009867Y0034044D01*
X0009867Y0019044D01*
X0039867Y0019044D02*
X0039867Y0034044D01*
X0049867Y0034044D01*
X0049867Y0019044D01*
X0079867Y0019044D02*
X0091867Y0007044D01*
X0454867Y0007044D01*
X0457867Y0007044D01*
X0464867Y0014044D01*
X0459867Y0014044D02*
X0459867Y0013244D01*
X0455267Y0008644D01*
X0100267Y0008644D01*
X0089867Y0019044D01*
X0089867Y0034044D01*
X0089867Y0066544D01*
X0099867Y0066544D02*
X0099867Y0034044D01*
X0099867Y0019044D01*
X0108667Y0010244D01*
X0451067Y0010244D01*
X0454867Y0014044D01*
X0449867Y0014044D02*
X0447667Y0011844D01*
X0117067Y0011844D01*
X0109867Y0019044D01*
X0109867Y0034044D01*
X0109867Y0066544D01*
X0079867Y0066544D02*
X0079867Y0034044D01*
X0079867Y0019044D01*
X0049867Y0034044D02*
X0049867Y0066544D01*
X0054068Y0066544D01*
X0058168Y0070644D01*
X0229867Y0116544D02*
X0235767Y0122444D01*
X0281565Y0122444D01*
X0283967Y0124846D01*
X0283967Y0145344D01*
X0290467Y0151844D01*
X0391606Y0151844D01*
X0398806Y0159044D01*
X0399867Y0159044D01*
X0399867Y0174044D01*
X0409867Y0174044D02*
X0409867Y0159044D01*
X0408806Y0159044D01*
X0400006Y0150244D01*
X0306067Y0150244D01*
X0285567Y0129744D01*
X0285567Y0124183D01*
X0282228Y0120844D01*
X0281667Y0120844D01*
X0279867Y0119044D01*
X0239867Y0119044D01*
X0239867Y0126544D02*
X0239867Y0159044D01*
X0239867Y0174044D01*
X0249867Y0174044D02*
X0249867Y0159044D01*
X0249867Y0126544D01*
X0259867Y0126544D02*
X0259867Y0159044D01*
X0259867Y0174044D01*
X0269867Y0174044D02*
X0269867Y0159044D01*
X0269867Y0126544D01*
X0279867Y0126544D02*
X0279867Y0159044D01*
X0279867Y0174044D01*
X0289867Y0174044D02*
X0289867Y0159044D01*
X0299867Y0159044D02*
X0299867Y0174044D01*
X0309867Y0174044D02*
X0309867Y0159044D01*
X0319867Y0159044D02*
X0319867Y0174044D01*
X0329867Y0174044D02*
X0329867Y0159044D01*
X0339867Y0159044D02*
X0339867Y0174044D01*
X0349867Y0174044D02*
X0349867Y0159044D01*
X0359867Y0159044D02*
X0359867Y0174044D01*
X0369867Y0174044D02*
X0369867Y0159044D01*
X0379867Y0159044D02*
X0379867Y0174044D01*
X0389867Y0174044D02*
X0389867Y0159044D01*
X0419867Y0159044D02*
X0419867Y0174044D01*
X0464867Y0164044D02*
X0474867Y0154044D01*
X0474867Y0094044D01*
X0453267Y0094044D02*
X0453267Y0082444D01*
X0432367Y0069044D02*
X0419867Y0056544D01*
X0399867Y0024044D02*
X0382667Y0041244D01*
X0292667Y0041244D01*
X0284867Y0049044D01*
X0284867Y0059044D01*
X0279867Y0066544D02*
X0279867Y0034044D01*
X0279867Y0019044D01*
X0289867Y0019044D02*
X0289867Y0034044D01*
X0299867Y0034044D02*
X0299867Y0019044D01*
X0309867Y0019044D02*
X0309867Y0034044D01*
X0319867Y0034044D02*
X0319867Y0019044D01*
X0329867Y0019044D02*
X0329867Y0034044D01*
X0339867Y0034044D02*
X0339867Y0019044D01*
X0349867Y0019044D02*
X0349867Y0034044D01*
X0359867Y0034044D02*
X0359867Y0019044D01*
X0369867Y0019044D02*
X0369867Y0034044D01*
X0379867Y0034044D02*
X0379867Y0019044D01*
X0454867Y0007044D02*
X0455267Y0007044D01*
X0519867Y0039044D02*
X0519867Y0049044D01*
X0629534Y0039377D02*
X0629867Y0039044D01*
X0634867Y0039044D01*
X0644867Y0039044D01*
X0714867Y0039044D02*
X0724867Y0039044D01*
X0724867Y0049044D01*
X0724867Y0069044D02*
X0732977Y0077154D01*
X0738174Y0077154D01*
X0724788Y0077154D02*
X0722977Y0077154D01*
X0714867Y0069044D01*
X0658174Y0077154D02*
X0652977Y0077154D01*
X0644867Y0069044D01*
X0642977Y0077154D02*
X0634867Y0069044D01*
X0642977Y0077154D02*
X0644788Y0077154D01*
X0524867Y0164044D02*
X0504867Y0164044D01*
X0504867Y0174044D02*
X0504867Y0179044D01*
X0529867Y0179044D01*
X0504867Y0179044D02*
X0504867Y0184044D01*
X0229867Y0174044D02*
X0229867Y0159044D01*
X0229867Y0126544D01*
X0219867Y0126544D02*
X0219867Y0159044D01*
X0219867Y0174044D01*
X0209867Y0174044D02*
X0209867Y0159044D01*
X0209867Y0126544D01*
X0199867Y0126544D02*
X0199867Y0159044D01*
X0199867Y0174044D01*
X0189867Y0174044D02*
X0189867Y0159044D01*
X0189867Y0126544D01*
X0119867Y0126544D02*
X0119867Y0159044D01*
X0119867Y0174044D01*
X0009867Y0174044D02*
X0009867Y0159044D01*
X0239867Y0066544D02*
X0239867Y0034044D01*
X0239867Y0019044D01*
X0249867Y0019044D02*
X0249867Y0034044D01*
X0249867Y0066544D01*
X0259867Y0066544D02*
X0259867Y0034044D01*
X0259867Y0019044D01*
X0269867Y0019044D02*
X0269867Y0034044D01*
X0269867Y0066544D01*
D30*
X0564867Y0134044D02*
X0569867Y0134044D01*
X0579867Y0134044D01*
X0579867Y0154044D01*
X0554867Y0154044D01*
X0579867Y0154044D02*
X0579867Y0159044D01*
X0589867Y0169044D01*
X0609867Y0154044D02*
X0640067Y0154044D01*
X0659767Y0154044D02*
X0659767Y0105440D01*
X0651481Y0097154D01*
X0664867Y0097154D02*
X0664867Y0089044D01*
X0744867Y0089044D01*
X0744867Y0097154D01*
X0718095Y0097154D02*
X0718095Y0107272D01*
X0729867Y0119044D01*
X0729867Y0123844D01*
X0760067Y0154044D01*
X0739767Y0154044D02*
X0710667Y0124944D01*
X0697423Y0124944D01*
X0691523Y0119044D01*
X0691523Y0097270D01*
X0691638Y0097154D01*
X0664867Y0089044D02*
X0614867Y0089044D01*
X0609867Y0094044D01*
X0638095Y0097154D02*
X0638095Y0107272D01*
X0649867Y0119044D01*
X0649867Y0164044D01*
X0654867Y0169044D01*
X0714867Y0169044D01*
X0719867Y0164044D01*
X0719867Y0154244D01*
X0720067Y0154044D01*
X0759867Y0134144D02*
X0779767Y0154044D01*
X0759867Y0134144D02*
X0759867Y0119044D01*
X0771638Y0107272D01*
X0771638Y0097154D01*
X0779867Y0078690D02*
X0779867Y0119044D01*
X0691523Y0119044D02*
X0679867Y0119044D01*
X0569867Y0109044D02*
X0569867Y0134044D01*
X0778331Y0077154D02*
X0779867Y0078690D01*
X0774867Y0049044D02*
X0744867Y0049044D01*
X0724867Y0049044D01*
X0694867Y0049044D01*
X0664867Y0049044D01*
X0639200Y0049044D01*
X0629534Y0039377D01*
X0612600Y0022444D01*
X0607133Y0022444D01*
X0600533Y0029044D01*
X0599867Y0029044D01*
X0599867Y0039044D01*
X0589867Y0049044D01*
X0609867Y0049044D01*
D31*
X0479867Y0014044D03*
X0469867Y0014044D03*
X0464867Y0014044D03*
X0459867Y0014044D03*
X0454867Y0014044D03*
X0449867Y0014044D03*
X0364867Y0060644D03*
X0374867Y0064044D03*
X0448867Y0083844D03*
X0434867Y0099044D03*
X0434867Y0104044D03*
X0287067Y0104844D03*
X0287067Y0100844D03*
X0287067Y0096844D03*
X0255267Y0095844D03*
X0284867Y0086244D03*
X0269667Y0077444D03*
X0284867Y0059044D03*
X0189867Y0086244D03*
X0179867Y0094044D03*
X0179867Y0114044D03*
X0184867Y0114044D03*
X0174867Y0114044D03*
X0239867Y0119044D03*
X0287067Y0108844D03*
D32*
X0522941Y0131681D02*
X0529867Y0124756D01*
X0529867Y0121544D01*
X0539867Y0121544D02*
X0527741Y0133669D01*
X0527741Y0144896D01*
X0522367Y0150271D01*
X0522367Y0150544D01*
X0539867Y0159044D02*
X0544867Y0154044D01*
X0544867Y0144044D01*
X0554867Y0134044D01*
X0522941Y0131681D02*
X0522941Y0142095D01*
X0522367Y0142670D01*
X0539867Y0159044D02*
X0539867Y0169044D01*
X0541130Y0170307D01*
X0552256Y0170307D01*
X0560993Y0179044D01*
X0589867Y0179044D01*
X0539867Y0179044D02*
X0539867Y0169044D01*
X0589867Y0159044D02*
X0589867Y0134044D01*
X0589867Y0109044D01*
X0594867Y0109044D01*
X0609867Y0094044D01*
X0609867Y0074044D01*
X0609867Y0059044D01*
X0619867Y0049044D01*
X0619867Y0039044D01*
X0609867Y0029044D01*
X0589867Y0029044D02*
X0589867Y0039044D01*
X0579867Y0049044D01*
X0589867Y0049044D02*
X0589867Y0069044D01*
X0587367Y0071544D01*
X0597367Y0071544D01*
X0599867Y0074044D01*
X0579867Y0083544D02*
X0564867Y0068544D01*
X0564867Y0047671D01*
X0565967Y0046571D01*
X0565967Y0030144D01*
X0559867Y0024044D01*
X0559867Y0044044D02*
X0532367Y0071544D01*
X0532367Y0073544D01*
X0540667Y0081844D01*
X0540667Y0091447D01*
X0539867Y0092247D01*
X0539867Y0121544D01*
X0579867Y0109044D02*
X0579867Y0083544D01*
X0547367Y0068544D02*
X0542367Y0073544D01*
X0547367Y0068544D02*
X0554867Y0068544D01*
X0664867Y0059044D02*
X0694867Y0059044D01*
X0664867Y0059044D02*
X0664867Y0089044D01*
X0589867Y0109044D02*
X0579867Y0109044D01*
X0744867Y0089044D02*
X0744867Y0059044D01*
X0774867Y0059044D01*
M02*
