%
M48
M72
T01C0.01378
T02C0.03150
T03C0.03200
T04C0.03543
T05C0.03800
T06C0.03937
T07C0.04000
T08C0.04331
T09C0.05200
T10C0.05900
T11C0.09843
%
T01
X284867Y59044
X269667Y77444
X284867Y86244
X287067Y96844
X287067Y100844
X287067Y104844
X287067Y108844
X255267Y95844
X189867Y86244
X179867Y94044
X179867Y114044
X184867Y114044
X174867Y114044
X239867Y119044
X434867Y104044
X434867Y99044
X448867Y83844
X374867Y64044
X364867Y60644
X449867Y14044
X454867Y14044
X459867Y14044
X464867Y14044
X469867Y14044
X479867Y14044
T02
X464867Y134044
X464867Y144044
X464867Y154044
X464867Y164044
X464867Y174044
X464867Y184044
X504867Y184044
X504867Y174044
X504867Y164044
X522367Y158418
X504867Y154044
X522367Y150544
X504867Y144044
X522367Y142670
X504867Y134044
T03
X529867Y121544
X539867Y121544
X554867Y134044
X564867Y134044
X579867Y134044
X589867Y134044
X629867Y119044
X649867Y119044
X679867Y119044
X699867Y119044
X709867Y119044
X729867Y119044
X759867Y119044
X779867Y119044
X609867Y74044
X599867Y74044
X587367Y71544
X577367Y71544
X564867Y68544
X554867Y68544
X542367Y73544
X532367Y73544
X579867Y49044
X589867Y49044
X609867Y49044
X619867Y49044
X634867Y39044
X644867Y39044
X664867Y49044
X694867Y49044
X694867Y59044
X664867Y59044
X644867Y69044
X634867Y69044
X714867Y69044
X724867Y69044
X744867Y59044
X774867Y59044
X774867Y49044
X744867Y49044
X724867Y39044
X714867Y39044
X427367Y41544
X419867Y56544
X389867Y56544
X427367Y71544
X544867Y154044
X554867Y154044
T04
X519867Y89044
X519867Y79044
X519867Y69044
X519867Y59044
X519867Y49044
X519867Y39044
X439867Y39044
X439867Y49044
X439867Y59044
X439867Y69044
X439867Y79044
X439867Y89044
T05
X279867Y66544
X269867Y66544
X259867Y66544
X249867Y66544
X239867Y66544
X229867Y66544
X219867Y66544
X209867Y66544
X199867Y66544
X189867Y66544
X179867Y66544
X169867Y66544
X159867Y66544
X149867Y66544
X139867Y66544
X129867Y66544
X119867Y66544
X109867Y66544
X99867Y66544
X89867Y66544
X79867Y66544
X69867Y66544
X59867Y66544
X49867Y66544
X74867Y79044
X84867Y79044
X94867Y79044
X104867Y79044
X114867Y79044
X229867Y76544
X229867Y86544
X229867Y96544
X229867Y106544
X229867Y116544
X229867Y126544
X219867Y126544
X209867Y126544
X199867Y126544
X189867Y126544
X179867Y126544
X169867Y126544
X159867Y126544
X149867Y126544
X139867Y126544
X129867Y126544
X119867Y126544
X109867Y126544
X99867Y126544
X89867Y126544
X79867Y126544
X69867Y126544
X59867Y126544
X49867Y126544
X59867Y116544
X79867Y116544
X89867Y116544
X99867Y116544
X239867Y126544
X249867Y126544
X259867Y126544
X269867Y126544
X279867Y126544
T06
X529867Y179044
X539867Y179044
X549867Y179044
X589867Y179044
X589867Y169044
X589867Y159044
X579867Y109044
X569867Y109044
X559867Y109044
X559867Y44044
X559867Y34044
X589867Y29044
X599867Y29044
X609867Y29044
X559867Y24044
T07
X9867Y19044
X19867Y19044
X29867Y19044
X39867Y19044
X49867Y19044
X59867Y19044
X69867Y19044
X79867Y19044
X89867Y19044
X99867Y19044
X109867Y19044
X119867Y19044
X129867Y19044
X139867Y19044
X149867Y19044
X159867Y19044
X169867Y19044
X179867Y19044
X189867Y19044
X199867Y19044
X209867Y19044
X219867Y19044
X229867Y19044
X239867Y19044
X249867Y19044
X259867Y19044
X269867Y19044
X279867Y19044
X289867Y19044
X299867Y19044
X309867Y19044
X319867Y19044
X329867Y19044
X339867Y19044
X349867Y19044
X359867Y19044
X369867Y19044
X379867Y19044
X379867Y34044
X369867Y34044
X359867Y34044
X349867Y34044
X339867Y34044
X329867Y34044
X319867Y34044
X309867Y34044
X299867Y34044
X289867Y34044
X279867Y34044
X269867Y34044
X259867Y34044
X249867Y34044
X239867Y34044
X229867Y34044
X219867Y34044
X209867Y34044
X199867Y34044
X189867Y34044
X179867Y34044
X169867Y34044
X159867Y34044
X149867Y34044
X139867Y34044
X129867Y34044
X119867Y34044
X109867Y34044
X99867Y34044
X89867Y34044
X79867Y34044
X69867Y34044
X59867Y34044
X49867Y34044
X39867Y34044
X29867Y34044
X19867Y34044
X9867Y34044
X14867Y81544
X14867Y91544
X14867Y101544
X14867Y111544
X19867Y159044
X29867Y159044
X39867Y159044
X49867Y159044
X59867Y159044
X69867Y159044
X79867Y159044
X89867Y159044
X99867Y159044
X109867Y159044
X119867Y159044
X129867Y159044
X139867Y159044
X149867Y159044
X159867Y159044
X169867Y159044
X179867Y159044
X189867Y159044
X199867Y159044
X209867Y159044
X219867Y159044
X229867Y159044
X239867Y159044
X249867Y159044
X259867Y159044
X269867Y159044
X279867Y159044
X289867Y159044
X299867Y159044
X309867Y159044
X319867Y159044
X329867Y159044
X339867Y159044
X349867Y159044
X359867Y159044
X369867Y159044
X379867Y159044
X389867Y159044
X399867Y159044
X409867Y159044
X419867Y159044
X444867Y159044
X444867Y149044
X444867Y139044
X444867Y129044
X444867Y119044
X404867Y114044
X374867Y114044
X344867Y114044
X314867Y114044
X314867Y104044
X344867Y104044
X374867Y104044
X404867Y104044
X404867Y94044
X374867Y94044
X344867Y94044
X314867Y94044
X314867Y84044
X344867Y84044
X374867Y84044
X404867Y84044
X534867Y89044
X419867Y174044
X409867Y174044
X399867Y174044
X389867Y174044
X379867Y174044
X369867Y174044
X359867Y174044
X349867Y174044
X339867Y174044
X329867Y174044
X319867Y174044
X309867Y174044
X299867Y174044
X289867Y174044
X279867Y174044
X269867Y174044
X259867Y174044
X249867Y174044
X239867Y174044
X229867Y174044
X219867Y174044
X209867Y174044
X199867Y174044
X189867Y174044
X179867Y174044
X169867Y174044
X159867Y174044
X149867Y174044
X139867Y174044
X129867Y174044
X119867Y174044
X109867Y174044
X99867Y174044
X89867Y174044
X79867Y174044
X69867Y174044
X59867Y174044
X49867Y174044
X39867Y174044
X29867Y174044
X19867Y174044
X9867Y174044
X9867Y159044
T08
X109867Y111544
X119867Y111544
X129867Y111544
X139867Y111544
X199867Y111544
X209867Y111544
X219867Y111544
X239867Y111544
X249867Y111544
X259867Y111544
X269867Y111544
X279867Y111544
X279867Y91544
X269867Y91544
X259867Y91544
X249867Y91544
X239867Y91544
X219867Y91544
X209867Y91544
X199867Y91544
X139867Y91544
X129867Y91544
X119867Y91544
X109867Y91544
X54867Y91544
X54867Y101544
X399867Y24044
X409867Y24044
X419867Y24044
X631402Y77154
X644788Y77154
X658174Y77154
X671560Y77154
X684945Y77154
X698331Y77154
X711402Y77154
X724788Y77154
X738174Y77154
X751560Y77154
X764945Y77154
X778331Y77154
X771638Y97154
X758252Y97154
X744867Y97154
X731481Y97154
X718095Y97154
X691638Y97154
X678252Y97154
X664867Y97154
X651481Y97154
X638095Y97154
T09
X640067Y154044
X659767Y154044
X720067Y154044
X739767Y154044
X760067Y154044
X779767Y154044
T10
X609867Y154044
X609867Y94044
T11
X689867Y149044
X774867Y14044
X24867Y64044
X24867Y134044
M30
